<?xml version="1.0" encoding="UTF-8"?> <svg xmlns="http://www.w3.org/2000/svg" width="61" height="61" viewBox="0 0 61 61" fill="none"><g clip-path="url(#clip0_222_1476)"><path d="M9.48445 58.9278C9.65151 59.4641 9.9634 59.9438 10.3857 60.3141C10.8081 60.6843 11.3245 60.9308 11.878 61.0263C12.4315 61.1217 13.0006 61.0625 13.5226 60.8551C14.0445 60.6477 14.4991 60.3003 14.8362 59.851L17.3301 56.5265C17.6006 56.1 17.9575 55.7349 18.3778 55.4547C18.798 55.1745 19.2723 54.9855 19.7701 54.8998H38.1016C39.3834 54.8621 40.601 54.3307 41.5003 53.4165L54.1883 40.4997C54.9222 39.7508 55.3401 38.7485 55.3557 37.7001C55.3713 36.6516 54.9834 35.6373 54.2721 34.8669C53.5608 34.0965 52.5807 33.6289 51.5343 33.5609C50.488 33.4928 49.4556 33.8296 48.6505 34.5014L40.386 41.4198C39.9859 40.8674 39.4596 40.4186 38.8509 40.1107C38.2422 39.8028 37.5688 39.6448 36.8867 39.6498H26.5289C26.3182 39.6574 26.1113 39.5921 25.9433 39.4648C24.4907 38.2695 22.6679 37.6161 20.7867 37.6165C12.2061 37.6165 8.80735 42.4172 7.57718 43.2905C6.92643 43.9441 6.46608 44.7627 6.24558 45.6584C6.02508 46.554 6.05276 47.4927 6.32567 48.3738L9.48445 58.9278ZM9.02492 44.7209C10.0416 43.9971 13.1343 39.6528 20.7867 39.6528C22.197 39.6452 23.5649 40.1348 24.6501 41.0355C25.1826 41.4638 25.8475 41.6938 26.5309 41.6862H36.8867C37.1537 41.6752 37.4202 41.717 37.6711 41.809C37.922 41.9011 38.1523 42.0417 38.3489 42.2228C38.5454 42.4038 38.7044 42.6219 38.8167 42.8644C38.929 43.1069 38.9924 43.3691 39.0034 43.6361C39.0143 43.9032 38.9726 44.1697 38.8805 44.4206C38.7884 44.6715 38.6478 44.9018 38.4668 45.0983C38.2857 45.2949 38.0677 45.4539 37.8252 45.5662C37.5827 45.6785 37.3204 45.7419 37.0534 45.7528H25.8701C25.6004 45.7528 25.3418 45.86 25.1512 46.0506C24.9605 46.2413 24.8534 46.4999 24.8534 46.7695C24.8534 47.0391 24.9605 47.2977 25.1512 47.4884C25.3418 47.6791 25.6004 47.7862 25.8701 47.7862H37.0534C37.6052 47.7877 38.1516 47.6768 38.6592 47.4601C39.1667 47.2435 39.6247 46.9256 40.0053 46.526C40.3859 46.1264 40.681 45.6534 40.8727 45.1359C41.0644 44.6184 41.1485 44.0673 41.1201 43.5162V43.4704L49.9651 36.0671C50.1712 35.8936 50.4096 35.7626 50.6665 35.6816C50.9235 35.6006 51.1939 35.5712 51.4622 35.5951C51.7306 35.619 51.9916 35.6957 52.2301 35.8209C52.4687 35.946 52.6802 36.1171 52.8524 36.3243C53.1754 36.717 53.3429 37.2146 53.3233 37.7227C53.3036 38.2307 53.098 38.7139 52.7457 39.0805L40.0566 51.9921C39.5307 52.527 38.8197 52.8399 38.0701 52.8665H19.7701C17.751 52.8665 16.2534 54.5704 15.7034 55.3065L13.2095 58.632C13.0977 58.7809 12.947 58.8962 12.7741 58.9653C12.6012 59.0345 12.4126 59.0548 12.2289 59.024C12.0452 58.9933 11.8735 58.9127 11.7325 58.791C11.5915 58.6694 11.4866 58.5113 11.4293 58.3341L8.27055 47.7831C8.10533 47.2524 8.08827 46.6866 8.22122 46.147C8.35418 45.6073 8.63208 45.1142 9.02492 44.7209Z" fill="black"></path><path d="M28.9914 35.075C29.5527 35.5895 30.2866 35.875 31.0481 35.875C31.8096 35.875 32.5434 35.5895 33.1048 35.075C34.3157 33.9729 35.4808 32.9278 36.595 31.9284C45.1696 24.2444 50.8334 19.1642 50.8334 11.8401C50.8334 5.09045 46.3601 0 40.4329 0C38.7686 0.0196203 37.1298 0.412545 35.6375 1.14981C34.1453 1.88707 32.8375 2.94986 31.8106 4.25983C31.718 4.37223 31.6015 4.46257 31.4696 4.5243C31.3377 4.58603 31.1937 4.61759 31.0481 4.61668C30.9023 4.61752 30.7582 4.58594 30.6262 4.52422C30.4941 4.46251 30.3774 4.3722 30.2846 4.25983C29.2579 2.94994 27.9502 1.88719 26.4581 1.14993C24.966 0.412665 23.3274 0.0196991 21.6632 0C15.734 0 11.2617 5.09045 11.2617 11.8401C11.2617 19.1601 16.9256 24.2434 25.5001 31.9325C26.6144 32.9319 27.7795 33.977 28.9914 35.075ZM46.8247 18.3295C46.607 17.1819 46.2385 16.0681 45.7288 15.0172C45.2711 14.0972 44.943 13.1184 44.7538 12.1085C44.7196 11.955 44.7211 11.7956 44.7583 11.6428C44.7955 11.4899 44.8673 11.3477 44.9683 11.227C45.4909 10.6048 46.843 10.1728 48.6629 10.0294C48.7529 10.6288 48.7988 11.234 48.8001 11.8401C48.7665 14.1462 48.0817 16.3958 46.8247 18.3295ZM48.1901 8.03167C46.3916 8.20653 44.4376 8.6925 43.4118 9.91962C43.1258 10.2613 42.9179 10.6614 42.8027 11.0918C42.6875 11.5222 42.6678 11.9726 42.7448 12.4115C42.9585 13.6005 43.3377 14.7538 43.8713 15.8376C44.7512 17.4427 45.0832 19.291 44.8168 21.1019C44.1688 21.8807 43.4524 22.672 42.6676 23.4758C42.5375 22.0029 41.9643 20.6039 41.0236 19.4631C38.2044 16.0074 32.8018 15.25 30.9576 15.25C29.2293 15.25 28.3987 16.41 27.6656 17.4318C26.6429 18.8582 25.5866 20.3333 21.8076 20.3333C20.3611 20.3144 18.9632 20.8549 17.9056 21.8421C17.265 21.1195 16.661 20.3652 16.096 19.582C16.2038 18.8204 16.2609 18.0525 16.2668 17.2833C16.2668 14.2089 16.8595 14.1154 18.2899 13.8897C19.3181 13.8178 20.3112 13.4865 21.1767 12.9269C22.0421 12.3672 22.7517 11.5974 23.2391 10.6892C24.4418 8.67928 24.9237 5.96173 24.6797 2.59758C25.5007 2.91074 26.2716 3.34194 26.9682 3.87757C25.981 8.0642 26.3897 10.8163 28.2177 12.0292C28.8194 12.4777 29.5411 12.7368 30.2907 12.7734C30.8289 12.7158 31.3456 12.5304 31.7976 12.2326C32.2497 11.9347 32.6239 11.5332 32.8893 11.0613C33.3061 10.5042 33.5796 10.1667 33.8653 10.1667C35.7281 9.95852 37.4334 9.02312 38.6101 7.564C39.9578 6.04309 40.6992 4.07969 40.6932 2.04757C42.4094 2.14346 44.0532 2.77109 45.3965 3.84337C46.7399 4.91566 47.7162 6.37944 48.1901 8.03167ZM31.0471 6.65002C31.4903 6.65027 31.9281 6.55304 32.3296 6.36523C32.7311 6.17741 33.0863 5.9036 33.3702 5.5632C34.7099 3.89313 36.5716 2.72132 38.6568 2.23565C38.6192 3.70872 38.0613 5.12092 37.082 6.222C36.285 7.23728 35.138 7.91881 33.8653 8.13333C33.3248 8.18314 32.8047 8.36493 32.3509 8.66275C31.8971 8.96056 31.5234 9.36528 31.2626 9.84133C30.5286 10.8194 30.3771 11.0237 29.3431 10.3364C28.482 9.76407 28.2685 8.01133 28.6986 5.53575L28.723 5.5632C29.0068 5.90389 29.3622 6.17789 29.7638 6.36573C30.1655 6.55357 30.6036 6.65063 31.0471 6.65002ZM21.6632 2.03333C21.9739 2.03814 22.2841 2.05986 22.5925 2.0984C22.8294 4.49468 22.7734 7.50808 21.4955 9.64308C21.1575 10.2929 20.654 10.8419 20.0358 11.2347C19.4176 11.6274 18.7066 11.8499 17.9748 11.8798C16.0035 12.1898 14.4663 12.7429 14.2589 16.4009C13.6268 14.9625 13.2987 13.4091 13.2951 11.8381C13.2951 6.24945 16.892 2.03333 21.6632 2.03333ZM19.2883 23.3325C19.9687 22.6923 20.8736 22.3454 21.8076 22.3667C26.6307 22.3667 28.2482 20.1097 29.3187 18.6172C30.0304 17.629 30.3293 17.2833 30.9576 17.2833C32.8059 17.2833 37.3118 18.1302 39.4458 20.7491C39.9797 21.4189 40.3557 22.2006 40.5456 23.0358C40.7355 23.8711 40.7346 24.7384 40.5427 25.5732C38.9517 27.086 37.1766 28.6812 35.2378 30.4197C34.1208 31.4208 32.9537 32.4713 31.7364 33.5714C31.5487 33.7443 31.3028 33.8402 31.0476 33.8402C30.7924 33.8402 30.5465 33.7443 30.3588 33.5714C29.1435 32.4666 27.9764 31.416 26.8574 30.4197C23.9365 27.8007 21.3796 25.5021 19.2883 23.3325Z" fill="black"></path></g><defs><clipPath id="clip0_222_1476"><rect width="61" height="61" fill="white"></rect></clipPath></defs></svg> 