<?xml version="1.0" encoding="UTF-8"?> <svg xmlns="http://www.w3.org/2000/svg" width="70" height="70" viewBox="0 0 70 70" fill="none"><path d="M67.0844 43.4401C66.8583 43.2277 66.6559 43.04 66.4741 42.8713C65.7611 42.21 65.4032 41.8779 65.2268 41.5723C65.0503 41.2668 64.9419 40.791 64.7255 39.8428C64.6702 39.601 64.6089 39.3318 64.538 39.0298C64.1368 37.3171 62.6871 36.1007 60.9308 36.003C60.6212 35.9857 60.3453 35.9719 60.0975 35.9598C59.1263 35.9114 58.6389 35.887 58.3072 35.7663C57.9757 35.6457 57.5866 35.3508 56.8115 34.7636C56.6138 34.6139 56.3937 34.4471 56.1454 34.2613C54.7373 33.2072 52.8449 33.2072 51.4367 34.2613C51.1885 34.4471 50.9684 34.6138 50.7707 34.7635C49.9955 35.3508 49.6064 35.6456 49.2747 35.7663C49.136 35.8169 48.9692 35.8504 48.7517 35.876C45.1644 32.6557 40.8697 30.4354 36.2515 29.3661C41.2466 26.9678 44.7037 21.859 44.7037 15.9577C44.7038 7.76166 38.0359 1.09375 29.8399 1.09375C21.6439 1.09375 14.976 7.76166 14.976 15.9577C14.976 21.8593 18.4333 26.9683 23.4289 29.3665C18.7769 30.4445 14.4462 32.6896 10.8463 35.9451C5.6709 40.6254 2.41344 47.0076 1.6742 53.916C1.64112 54.2246 1.74078 54.5326 1.94819 54.7634C2.15559 54.9942 2.45131 55.1261 2.76166 55.1261L29.838 55.126C29.8385 55.126 29.8392 55.1261 29.8398 55.1261C29.8403 55.1261 29.841 55.126 29.8415 55.126H40.8589C41.2462 56.0219 41.9643 56.7617 42.9188 57.1706C43.2039 57.2927 43.4585 57.4 43.6869 57.4963C43.8033 57.5452 43.9117 57.591 44.0135 57.6342L40.9658 64.1803C40.7533 64.6368 40.8117 65.1685 41.118 65.5677C41.4241 65.9669 41.922 66.1609 42.418 66.0743L45.4938 65.5369L47.0625 68.2365C47.3049 68.6537 47.7465 68.9064 48.2256 68.9064C48.2461 68.9064 48.2667 68.906 48.2874 68.905C48.7899 68.8822 49.2343 68.5847 49.447 68.1282L52.4462 61.6861C53.1142 61.4823 53.4936 61.3796 53.7911 61.3796C54.0886 61.3796 54.468 61.4823 55.1362 61.6861L58.1352 68.1281C58.3475 68.5844 58.7917 68.882 59.2945 68.905C59.3152 68.906 59.336 68.9064 59.3567 68.9064C59.8357 68.9064 60.2772 68.6537 60.5197 68.2365L62.0884 65.5369L65.1642 66.0744C65.6606 66.1609 66.1587 65.9667 66.4648 65.567C66.7708 65.1675 66.8288 64.6358 66.6162 64.18L63.5686 57.6342C63.6704 57.591 63.7788 57.5453 63.8952 57.4963C64.1236 57.4 64.3782 57.2927 64.6633 57.1706C66.2802 56.4781 67.2265 54.8393 67.0177 53.0925C66.9809 52.7845 66.9465 52.5105 66.9157 52.2644C66.7947 51.2995 66.7339 50.8152 66.7953 50.4677C66.8566 50.1201 67.0792 49.6858 67.523 48.8205C67.6361 48.5998 67.7621 48.3541 67.902 48.0774C68.6956 46.5075 68.3671 44.644 67.0844 43.4401ZM39.6802 48.0774C39.8201 48.3541 39.9462 48.5998 40.0592 48.8206C40.503 49.6861 40.7257 50.1203 40.787 50.4678C40.8482 50.8153 40.7875 51.2996 40.6665 52.2646C40.641 52.4686 40.6129 52.6929 40.5831 52.9386H32.304L35.063 49.8884C35.2968 49.6299 35.3934 49.2752 35.323 48.9338L33.9173 42.1187L34.1907 42.4428C34.3996 42.6906 34.7061 42.8314 35.0266 42.8314C35.0609 42.8314 35.0955 42.8297 35.1301 42.8265C35.4872 42.7926 35.8051 42.5857 35.9806 42.2729L41.0039 33.3208C42.653 34.1007 44.2237 35.0556 45.6897 36.1761C44.3827 36.5812 43.3693 37.6425 43.0442 39.0302C42.9734 39.3321 42.912 39.6014 42.8569 39.8431C42.6406 40.7913 42.5321 41.2672 42.3555 41.5728C42.179 41.8783 41.8213 42.2104 41.1083 42.8717C40.9264 43.0403 40.7239 43.2281 40.4978 43.4405C39.2153 44.6439 38.8867 46.5075 39.6802 48.0774ZM24.8345 39.8258L20.6992 32.4563C21.4657 32.1717 22.2493 31.9226 23.0473 31.7096L28.2687 35.7537L24.8345 39.8258ZM28.7189 38.6128L29.8398 37.2838L30.9605 38.6127L33.0684 48.8324L29.8396 52.402L26.6109 48.8324L28.7189 38.6128ZM31.4111 35.7537L36.6268 31.7141C37.4219 31.9274 38.2056 32.1781 38.9755 32.4652L34.8452 39.8258L31.4111 35.7537ZM17.1635 15.9577C17.1635 8.96793 22.8502 3.28125 29.8399 3.28125C36.8297 3.28125 42.5163 8.96793 42.5163 15.9577C42.5163 22.9456 36.8327 28.6311 29.8454 28.6341C29.8435 28.6341 29.8417 28.6341 29.8398 28.6341C29.838 28.6341 29.8362 28.6341 29.8343 28.6341C22.8472 28.631 17.1635 22.9456 17.1635 15.9577ZM29.8399 30.8216H29.8454C31.1844 30.8219 32.5106 30.9254 33.8151 31.1248L29.8398 34.2039L25.8613 31.1224C27.158 30.9254 28.4846 30.8219 29.8343 30.8216C29.8362 30.8215 29.8381 30.8216 29.8399 30.8216ZM18.6697 33.3097L23.6992 42.2726C23.8747 42.5854 24.1925 42.7923 24.5497 42.8262C24.5843 42.8295 24.6188 42.8311 24.6532 42.8311C24.9737 42.8311 25.2803 42.6902 25.4891 42.4426L25.7624 42.1185L24.3567 48.9337C24.2863 49.2752 24.3828 49.6297 24.6167 49.8884L27.3757 52.9386L4.0069 52.9387C5.35877 44.1432 11.0079 36.918 18.6697 33.3097ZM48.1442 65.7438L47.0023 63.7786C46.7722 63.3827 46.3201 63.1723 45.8684 63.2507L43.6296 63.6419L45.8267 58.9228C45.9742 59.1376 46.1473 59.4055 46.3661 59.7442C46.5006 59.9524 46.6504 60.1844 46.8201 60.444C47.5056 61.4921 48.605 62.1193 49.7888 62.2114L48.1442 65.7438ZM61.714 63.2507C61.2628 63.1719 60.8101 63.3824 60.58 63.7786L59.4381 65.7437L57.7944 62.2129C58.978 62.1205 60.077 61.492 60.7623 60.4439C60.9319 60.1844 61.0818 59.9524 61.2163 59.7442C61.4351 59.4054 61.6081 59.1376 61.7557 58.9228L63.9527 63.6419L61.714 63.2507ZM65.9498 47.0906C65.812 47.3631 65.688 47.6051 65.5765 47.8223C64.4869 49.9472 64.4482 50.1674 64.7453 52.5366C64.7757 52.7789 64.8096 53.0488 64.8458 53.352C64.9398 54.1383 64.5301 54.8479 63.8022 55.1596C63.5214 55.2798 63.2708 55.3855 63.0457 55.4803C60.8454 56.4077 60.674 56.5514 59.3787 58.5575C59.2462 58.7625 59.0988 58.991 58.9316 59.2467C58.4982 59.9093 57.7281 60.1896 56.9704 59.9605C56.6781 59.8721 56.4182 59.7919 56.1848 59.7198C55.0439 59.3678 54.4176 59.1918 53.7913 59.1918C53.1649 59.1918 52.5385 59.3679 51.3977 59.7198C51.1643 59.7919 50.9046 59.872 50.6121 59.9605C49.8543 60.1891 49.0843 59.9093 48.6509 59.2467C48.4837 58.991 48.3363 58.7625 48.2038 58.5575C46.9084 56.5515 46.7371 56.4077 44.5368 55.4803C44.3117 55.3856 44.0611 55.2799 43.7803 55.1596C43.0524 54.8479 42.6428 54.1383 42.7367 53.352C42.773 53.0488 42.8069 52.7789 42.8372 52.5366C43.1343 50.1674 43.0956 49.9472 42.0058 47.8223C41.8944 47.6051 41.7704 47.3631 41.6326 47.0906C41.2753 46.3839 41.4177 45.577 41.9949 45.0352C42.2176 44.8261 42.4169 44.6411 42.596 44.475C44.3466 42.8512 44.4584 42.6575 44.9896 40.3293C45.0439 40.0913 45.1044 39.8262 45.174 39.5288C45.3546 38.7577 45.9823 38.2311 46.7729 38.1872C47.0779 38.1701 47.3496 38.1567 47.5935 38.1445C49.9783 38.0257 50.1884 37.9492 52.092 36.5071C52.2865 36.3597 52.5032 36.1955 52.7477 36.0124C53.3818 35.5379 54.2009 35.538 54.8348 36.0124C55.0794 36.1953 55.2961 36.3597 55.4908 36.5072C57.3941 37.949 57.6042 38.0256 59.989 38.1444C60.2329 38.1566 60.5046 38.1701 60.8096 38.187C61.6002 38.2309 62.2279 38.7576 62.4085 39.5287C62.4782 39.826 62.5387 40.0913 62.5931 40.3293C63.1242 42.6572 63.2361 42.8509 64.9866 44.4749C65.1657 44.641 65.365 44.8258 65.5876 45.0349C66.1648 45.577 66.3072 46.3839 65.9498 47.0906ZM53.7911 39.659C49.2757 39.659 45.6021 43.3326 45.6021 47.8479C45.6021 52.3631 49.2757 56.0368 53.7911 56.0368C58.3065 56.0368 61.9802 52.3633 61.9802 47.848C61.9802 43.3327 58.3067 39.659 53.7911 39.659ZM53.7911 53.8494C50.4818 53.8494 47.7896 51.1572 47.7896 47.848C47.7896 44.5389 50.4818 41.8466 53.7911 41.8466C57.1004 41.8466 59.7927 44.5389 59.7927 47.848C59.7927 51.1572 57.1004 53.8494 53.7911 53.8494Z" fill="black"></path></svg> 