<?xml version="1.0" encoding="UTF-8"?>
<svg version="1.1" xmlns="http://www.w3.org/2000/svg" width="1024" height="1024">
<path d="M0 0 C337.92 0 675.84 0 1024 0 C1024 337.92 1024 675.84 1024 1024 C686.08 1024 348.16 1024 0 1024 C0 686.08 0 348.16 0 0 Z " fill="#FEFEFE" transform="translate(0,0)"/>
<path d="M0 0 C1.23492188 -0.01224609 2.46984375 -0.02449219 3.7421875 -0.03710938 C4.9178125 -0.03904297 6.0934375 -0.04097656 7.3046875 -0.04296875 C8.90932861 -0.04913208 8.90932861 -0.04913208 10.54638672 -0.05541992 C13.125 0.1875 13.125 0.1875 15.125 2.1875 C15.37668228 5.1380682 15.37668228 5.1380682 15.37896729 9.00389099 C15.38208727 9.71342188 15.38520725 10.42295278 15.38842177 11.15398461 C15.39643308 13.54471549 15.39006537 15.93519471 15.38378906 18.32592773 C15.38649814 20.03608855 15.39005861 21.74624821 15.39440918 23.45640564 C15.40356249 28.11913726 15.39997235 32.78178078 15.39365101 37.44451404 C15.38858578 42.34330657 15.39328581 47.24209157 15.39642334 52.1408844 C15.40007005 60.39561306 15.39525443 68.65030605 15.38574219 76.9050293 C15.37494628 86.38169659 15.37831507 95.85827723 15.389395 105.33494228 C15.39855636 113.50349735 15.39970782 121.67202672 15.39451766 129.84058529 C15.39143436 134.70341943 15.39088438 139.56621334 15.39759064 144.42904472 C15.47957098 213.5042848 5.03419765 278.53570984 -38.875 334.1875 C-39.97134766 335.60289062 -39.97134766 335.60289062 -41.08984375 337.046875 C-45.11715761 342.18269703 -49.38244269 347.0583561 -53.78515625 351.875 C-55.55856841 353.83735514 -57.25650245 355.83411409 -58.9375 357.875 C-61.63359648 361.05386857 -64.65327174 363.6952548 -67.828125 366.38671875 C-69.83370508 368.15116993 -71.65767813 370.00463667 -73.5 371.9375 C-79.12589518 377.62932363 -85.50186147 382.37380112 -91.875 387.1875 C-92.69846924 387.81809326 -92.69846924 387.81809326 -93.53857422 388.46142578 C-135.31438966 420.30205486 -190.52549676 438.25740907 -242.92578125 438.5859375 C-245.875 438.1875 -245.875 438.1875 -247.53551674 437.08496475 C-249.54854251 434.23338343 -249.25279112 431.89402174 -249.25595093 428.42962646 C-249.2606309 427.73839762 -249.26531087 427.04716877 -249.27013266 426.3349936 C-249.28212493 424.01187246 -249.27260809 421.68933676 -249.26318359 419.36621094 C-249.26724848 417.70179906 -249.27258989 416.03738989 -249.27911377 414.37298584 C-249.29283281 409.838102 -249.28746207 405.30342223 -249.27797651 400.76853466 C-249.27036839 395.99707181 -249.27743199 391.22562616 -249.28213501 386.4541626 C-249.28760402 378.41049083 -249.28038644 370.36690144 -249.26611328 362.32324219 C-249.24993977 353.10391549 -249.25495767 343.88478943 -249.2715925 334.66546798 C-249.28536236 326.70828376 -249.28704805 318.75115886 -249.27927649 310.79396653 C-249.2746637 306.06178675 -249.27379066 301.32969988 -249.28388596 296.59752655 C-249.35442633 258.19141481 -246.95728376 220.97410967 -234.875 184.1875 C-229.12890951 184.84263621 -225.08325037 185.97924963 -220.875 190.1875 C-220.95998528 191.64091782 -221.11250983 193.09048312 -221.29296875 194.53515625 C-224.12987133 220.3880924 -219.80723016 246.05958176 -213.875 271.1875 C-213.59140625 272.41597656 -213.3078125 273.64445312 -213.015625 274.91015625 C-206.90337248 299.54682321 -196.72726093 323.55630818 -182.13037109 344.35839844 C-181.27457725 345.60530771 -180.46080185 346.88185599 -179.68603516 348.18066406 C-177.55267471 351.60204197 -176.3728665 352.97672868 -172.5625 354.58984375 C-166.95993281 353.97854669 -164.56610416 350.78405158 -160.875 346.75 C-160.20210937 346.04939453 -159.52921875 345.34878906 -158.8359375 344.62695312 C-136.35817459 321.04265942 -118.84591174 294.55759001 -104.875 265.1875 C-104.42278076 264.23738037 -104.42278076 264.23738037 -103.96142578 263.26806641 C-70.44957036 191.94796385 -77.26202923 111.12145148 -95.95239258 36.89257812 C-97.696994 29.88647301 -97.696994 29.88647301 -96.875 26.1875 C-80.68728308 10.08431424 -43.547783 4.56997134 -21.875 1.1875 C-20.02841797 0.89552734 -20.02841797 0.89552734 -18.14453125 0.59765625 C-12.12469136 -0.11524921 -6.05265464 0.0032195 0 0 Z " fill="#637AAF" transform="translate(774.875,186.8125)"/>
<path d="M0 0 C28.27063157 0.23285555 81.46501334 3.69035514 103.10449219 25.32983398 C103.23768169 31.1266472 101.60869384 37.02286285 100.21386719 42.61499023 C99.83174098 44.19734157 99.45034186 45.77986862 99.06958008 47.36254883 C98.87091339 48.182453 98.6722467 49.00235718 98.46755981 49.84710693 C87.85733795 93.89677214 83.07700964 138.08249106 88.10449219 183.32983398 C88.19569336 184.20478516 88.28689453 185.07973633 88.38085938 185.98120117 C94.08600866 239.08913465 119.46698541 293.74368539 155.80761719 332.84936523 C157.77256253 334.97137253 159.66697682 337.12892309 161.54199219 339.32983398 C164.5226646 342.72017228 167.55788495 346.05697938 170.66699219 349.32983398 C171.55515625 350.27858398 172.44332031 351.22733398 173.35839844 352.20483398 C175.95166853 354.56271631 175.95166853 354.56271631 179.24121094 354.82983398 C184.34955298 353.93779063 186.20497651 350.38915593 189.10449219 346.32983398 C213.91406719 310.82146612 228.47364896 262.91356467 228.20214844 219.60327148 C228.20073349 218.72957916 228.19931854 217.85588684 228.19786072 216.95571899 C228.19232893 214.20538695 228.17978993 211.45514081 228.16699219 208.70483398 C228.16196835 206.82332476 228.157407 204.94181423 228.15332031 203.06030273 C228.14238198 198.48344746 228.12516581 193.90665521 228.10449219 189.32983398 C232.5973177 186.65871299 235.79554318 184.84778023 241.10449219 184.32983398 C245.56397702 195.47854607 248.34306686 206.88920901 250.66699219 218.64233398 C250.86470215 219.61734863 251.06241211 220.59236328 251.26611328 221.59692383 C251.94854758 225.16437304 252.5336882 228.74328657 253.10449219 232.32983398 C253.22835548 233.08777252 253.35221878 233.84571106 253.47983551 234.62661743 C256.68093448 254.94689932 256.54980574 275.19784869 256.5074687 295.70926619 C256.49976375 300.62182552 256.5069448 305.53436977 256.5116272 310.44692993 C256.5170424 318.66492802 256.50999382 326.88284445 256.49560547 335.10083008 C256.47916696 344.59950809 256.48466488 354.097994 256.50108469 363.59666765 C256.51467866 371.7899488 256.51663307 379.98317209 256.50876868 388.17646086 C256.50409598 393.0549731 256.5034587 397.9333947 256.51337814 402.81190109 C256.5220192 407.37748945 256.51607881 411.94282733 256.49869537 416.50838852 C256.49472031 418.18420495 256.49588194 419.86004238 256.50248337 421.53585052 C256.51064592 423.81743125 256.50044388 426.09820157 256.48544312 428.37973022 C256.48431204 429.65712759 256.48318096 430.93452496 256.48201561 432.25063133 C256.10449219 435.32983398 256.10449219 435.32983398 254.71251869 437.24151039 C250.91727172 439.8101601 245.45816648 438.56839148 241.10449219 438.32983398 C240.31461914 438.28729492 239.52474609 438.24475586 238.7109375 438.20092773 C193.38242852 435.54356306 146.15431252 421.16565963 109.10449219 394.32983398 C107.69770527 393.34306514 106.29008197 392.35748811 104.88183594 391.37280273 C95.15202428 384.51709769 85.97650478 377.2579569 77.10449219 369.32983398 C76.08395319 368.43236376 75.06312752 367.53521939 74.04199219 366.63842773 C68.6312314 361.8231447 63.74816365 356.87591934 59.10449219 351.32983398 C58.19246452 350.28898497 57.27820565 349.2500888 56.36230469 348.21264648 C49.38808588 340.27463956 42.98489719 332.11006714 37.10449219 323.32983398 C36.70552734 322.73541504 36.3065625 322.14099609 35.89550781 321.52856445 C17.10934277 293.22074813 3.6253427 261.32210398 -3.20800781 228.01733398 C-3.35536377 227.30295166 -3.50271973 226.58856934 -3.65454102 225.85253906 C-6.53123123 210.67702917 -7.19093282 195.54210726 -7.15429688 180.14233398 C-7.15701485 178.19220856 -7.16058027 176.24208417 -7.16491699 174.29196167 C-7.17393772 169.05749685 -7.17054253 163.82311193 -7.16415882 158.58864594 C-7.15905641 153.09368187 -7.16380089 147.59872413 -7.16693115 142.10375977 C-7.17055361 132.89818097 -7.16581194 123.69263443 -7.15625 114.48706055 C-7.1453169 103.83827277 -7.14893294 93.1895613 -7.15990281 82.5407753 C-7.16896322 73.37866689 -7.17026865 64.2165815 -7.16502547 55.05447006 C-7.16190554 49.58960465 -7.16149815 44.12477522 -7.16809845 38.65991211 C-7.17385491 33.53798947 -7.16990647 28.41616616 -7.15830994 23.2942543 C-7.15565643 21.41161387 -7.15644013 19.52896514 -7.16083527 17.64632797 C-7.16626372 15.08612561 -7.15949039 12.526246 -7.1494751 9.96606445 C-7.15616726 8.83760857 -7.15616726 8.83760857 -7.16299462 7.68635559 C-7.11713667 1.68455482 -6.12779638 0.09392166 0 0 Z " fill="#627AAF" transform="translate(246.8955078125,186.670166015625)"/>
<path d="M0 0 C23.19274094 7.34544065 43.97757979 24.73872791 61.65625 40.87890625 C63.79924312 42.81831503 65.98344638 44.69329299 68.1875 46.5625 C71.48255163 49.43578502 74.3412392 52.51782095 77.1640625 55.8515625 C79.15805217 58.18495467 81.23161341 60.43138086 83.3125 62.6875 C88.56547117 68.52610647 93.33323137 74.69168834 98 81 C98.70213623 81.94141846 98.70213623 81.94141846 99.41845703 82.90185547 C115.33433644 104.36248458 133.49874095 132.09474705 138 159 C137.30132812 159.27714844 136.60265625 159.55429687 135.8828125 159.83984375 C134.97273437 160.20207031 134.06265625 160.56429687 133.125 160.9375 C132.22007812 161.29714844 131.31515625 161.65679687 130.3828125 162.02734375 C128.03862333 162.94901262 128.03862333 162.94901262 126 164 C126.02356567 165.63690796 126.02356567 165.63690796 126.04760742 167.30688477 C126.58206607 208.04983828 126.58206607 208.04983828 123 227 C122.7831958 228.207771 122.7831958 228.207771 122.56201172 229.43994141 C116.3996832 263.30886328 104.85422369 298.93955409 83 326 C82.34902344 326.81082031 81.69804687 327.62164063 81.02734375 328.45703125 C78.20440184 330.60551305 76.48525882 330.36060941 73 330 C70.77758789 328.47460938 70.77758789 328.47460938 68.72265625 326.34375 C67.58086914 325.17972656 67.58086914 325.17972656 66.41601562 323.9921875 C65.63935547 323.16976563 64.86269531 322.34734375 64.0625 321.5 C63.28970703 320.70851563 62.51691406 319.91703125 61.72070312 319.1015625 C7.46347649 263.14736428 -18.74991481 189.83047368 -18.1484375 112.46484375 C-17.54930087 74.07590056 -8.87626374 37.14887285 0 0 Z " fill="#B2BBE3" transform="translate(350,212)"/>
<path d="M0 0 C0.32871094 1.71316406 0.32871094 1.71316406 0.6640625 3.4609375 C2.3611802 12.17695364 4.1709526 20.84717311 6.22485352 29.48681641 C9.18305295 41.94013723 11.70759027 54.37622289 13.56201172 67.04296875 C13.84660229 68.96435173 14.1443797 70.88384417 14.45751953 72.80078125 C19.53288959 104.11805928 19.46653711 138.74740733 14 170 C13.82839355 171.02416016 13.65678711 172.04832031 13.47998047 173.10351562 C4.99064644 222.71946249 -17.31046582 270.5100393 -51.703125 307.51953125 C-53.66807034 309.64153855 -55.56248464 311.79908911 -57.4375 314 C-58.61936566 315.33833015 -59.80759995 316.67104698 -61 318 C-61.86753906 318.98097656 -62.73507812 319.96195313 -63.62890625 320.97265625 C-64.5840274 322.00437574 -65.54105887 323.03433006 -66.5 324.0625 C-67.3765625 325.02285156 -68.253125 325.98320313 -69.15625 326.97265625 C-72 329 -72 329 -75.51171875 329.2109375 C-79.93287924 327.67615614 -81.79922646 325.31510518 -84.3125 321.5625 C-85.01016479 320.56246948 -85.01016479 320.56246948 -85.72192383 319.54223633 C-108.57460711 286.06597622 -118.75967851 248.12968891 -124.62353516 208.50268555 C-124.92260985 206.5144789 -125.25612164 204.5314584 -125.6015625 202.55078125 C-126.19490958 197.26301171 -126.14388588 192.00387586 -126.125 186.6875 C-126.13080078 185.07198242 -126.13080078 185.07198242 -126.13671875 183.42382812 C-126.12880137 176.88803464 -125.79855242 170.48755626 -125 164 C-126.2684375 163.071875 -126.2684375 163.071875 -127.5625 162.125 C-128.03816406 161.77695312 -128.51382813 161.42890625 -129.00390625 161.0703125 C-131.86486943 159.53625397 -134.87272951 158.82551017 -138 158 C-134.03602361 146.60356788 -129.71673805 135.6887152 -124.06787109 125.02099609 C-122.94320379 122.89251052 -121.83983719 120.75381008 -120.73828125 118.61328125 C-116.52808775 110.48019699 -112.1282832 102.59899453 -107 95 C-106.60586914 94.40896484 -106.21173828 93.81792969 -105.80566406 93.20898438 C-96.68161586 79.5469408 -86.9289952 66.79476216 -75.65234375 54.83984375 C-73.60476699 52.6475193 -71.65282596 50.44036276 -69.75 48.125 C-67.13451941 45.02149971 -64.2017661 42.42233836 -61.109375 39.80078125 C-59.7218275 38.61622681 -58.35610365 37.40553664 -57.015625 36.16796875 C-44.81909817 24.91139982 -17.12670006 0 0 0 Z " fill="#B2BBE3" transform="translate(678,213)"/>
<path d="M0 0 C13.97217949 9.30856818 22.83354803 21.71049933 27.5546875 37.74609375 C28 40 28 40 28 45 C-8.96 45 -45.92 45 -84 45 C-84.34804107 60.54254367 -84.34804107 60.54254367 -82.3125 75.5 C-82.13243408 76.3262085 -81.95236816 77.15241699 -81.7668457 78.00366211 C-78.39094391 92.72582417 -71.71039569 107.15885726 -59 116 C-45.5941797 123.20607767 -29.4946215 124.67700216 -14.75 120.375 C1.08312843 114.42975415 10.59122909 106.0226555 18.51171875 91.1640625 C19.00285156 90.44992187 19.49398437 89.73578125 20 89 C20.99 89 21.98 89 23 89 C21.47063522 99.47614878 13.92744111 108.43304383 6 115 C-10.68054408 127.38318357 -31.16142018 128.91691257 -51.19921875 126.609375 C-63.26278527 124.42364169 -75.84602338 118.19250862 -85 110 C-85.72316406 109.37996094 -86.44632813 108.75992188 -87.19140625 108.12109375 C-98.71157287 97.53657518 -106.20179605 82.04808982 -107.15698242 66.43383789 C-108.06210699 44.35980423 -103.83275306 27.72556206 -88.875 10.75 C-65.07543017 -14.97064896 -29.17991949 -17.26878492 0 0 Z " fill="#6278AE" transform="translate(825,692)"/>
<path d="M0 0 C1.35842742 1.14077883 2.7129792 2.28619856 4.0625 3.4375 C4.65160156 3.8603125 5.24070312 4.283125 5.84765625 4.71875 C15.08456741 11.62013237 21.84949327 24.27961294 24.0625 35.4375 C24.0625 37.7475 24.0625 40.0575 24.0625 42.4375 C-12.5675 42.4375 -49.1975 42.4375 -86.9375 42.4375 C-87.20981593 56.22612765 -87.20981593 56.22612765 -85.75 69.6875 C-85.61762939 70.42291016 -85.48525879 71.15832031 -85.34887695 71.91601562 C-82.36914064 87.37517539 -75.93337372 103.14487322 -62.8125 112.625 C-50.07066301 120.46774785 -36.10805644 121.00189506 -21.5625 118.96484375 C-18.88831847 118.31573283 -16.47565716 117.49774287 -13.9375 116.4375 C-12.46796875 115.83421875 -12.46796875 115.83421875 -10.96875 115.21875 C1.91697605 109.36160179 9.07792263 100.90423049 15.53515625 88.640625 C16.03917969 87.91359375 16.54320312 87.1865625 17.0625 86.4375 C18.0525 86.4375 19.0425 86.4375 20.0625 86.4375 C18.31875961 97.69070833 10.43973783 107.30010482 1.625 114.0625 C-15.02470842 125.23061211 -36.53130052 127.11979693 -55.88305664 123.41259766 C-74.5770572 119.0895406 -89.40441376 109.03976703 -100.2578125 93.1875 C-107.37393621 81.53691606 -110.50662746 69.66295935 -110.375 56.0625 C-110.36742676 54.96268799 -110.35985352 53.86287598 -110.35205078 52.72973633 C-110.18725662 44.60971439 -109.32599783 37.89639152 -105.9375 30.4375 C-105.49019531 29.40753906 -105.04289062 28.37757813 -104.58203125 27.31640625 C-101.48388646 20.66328568 -97.77358791 14.94670507 -92.9375 9.4375 C-92.36644531 8.77234375 -91.79539062 8.1071875 -91.20703125 7.421875 C-67.57034374 -18.18033663 -27.42564381 -21.03565537 0 0 Z " fill="#6178AE" transform="translate(390.9375,694.5625)"/>
<path d="M0 0 C8.58959197 5.12042696 15.26450346 12.28011686 18.33984375 21.87890625 C20.69526255 33.01488036 19.45059218 43.44189375 13.6796875 53.2421875 C8.26875079 61.07769694 0.32666001 66.86339063 -9 69 C-19.81395905 70.26456836 -29.63036941 69.67487088 -38.61328125 63.08203125 C-47.51527689 55.6307312 -53.11575027 47.03592696 -54.25 35.4453125 C-54.73174593 24.81679285 -51.13598225 15.81638986 -44 8 C-32.13787887 -4.73981171 -15.58913223 -7.85555646 0 0 Z " fill="#6179AF" transform="translate(530,191)"/>
<path d="M0 0 C0.495 9.405 0.495 9.405 1 19 C1.86625 17.783125 2.7325 16.56625 3.625 15.3125 C9.03419377 8.14658209 15.55376977 3.81541008 24 1 C34.51081549 0.07069009 45.55058656 -0.18529134 55 5 C55.67804688 5.29044189 56.35609375 5.58088379 57.0546875 5.88012695 C59.43719355 7.05322705 61.15212286 8.08401726 63 10 C63.98601679 13.64578582 63.76141778 17.06970128 63.5 20.8125 C63.46390625 21.79154297 63.4278125 22.77058594 63.390625 23.77929688 C63.29654015 26.19022119 63.16531451 28.59308437 63 31 C61.68 31 60.36 31 59 31 C58.36384766 29.69675781 58.36384766 29.69675781 57.71484375 28.3671875 C52.50482891 18.13036713 48.02625681 12.34762688 36.828125 8.69140625 C29.02625855 6.78404387 21.29774186 7.63731503 14 11 C7.53544056 15.21310943 3.42527688 20.56322322 1.46586609 28.03747559 C0.81685996 32.16461971 0.85259082 36.22077741 0.85473633 40.39257812 C0.85137772 41.33137314 0.8480191 42.27016815 0.84455872 43.2374115 C0.83507289 46.33537118 0.83310697 49.43327671 0.83203125 52.53125 C0.82881767 54.68688987 0.82545352 56.84252953 0.82194519 58.99816895 C0.81596032 63.51392116 0.8141047 68.02965425 0.81469727 72.54541016 C0.814799 78.33256237 0.80113223 84.11959221 0.78392506 89.90671539 C0.77281058 94.35736658 0.77077787 98.80798809 0.77130699 103.25865173 C0.77012661 105.39249596 0.76570155 107.52634095 0.75797462 109.66017151 C0.74818343 112.64267586 0.75104912 115.62491328 0.75708008 118.60742188 C0.75146057 119.48861191 0.74584106 120.36980194 0.74005127 121.2776947 C0.67020612 128.17695314 0.67020612 128.17695314 4 134 C5.68183948 134.23287008 7.3712416 134.41264166 9.0625 134.5625 C9.98160156 134.64628906 10.90070313 134.73007812 11.84765625 134.81640625 C12.55792969 134.87699219 13.26820313 134.93757812 14 135 C14 136.32 14 137.64 14 139 C-2.83 139 -19.66 139 -37 139 C-37 137.68 -37 136.36 -37 135 C-35.86111328 134.96132813 -35.86111328 134.96132813 -34.69921875 134.921875 C-33.70535156 134.86515625 -32.71148437 134.8084375 -31.6875 134.75 C-30.70136719 134.70359375 -29.71523437 134.6571875 -28.69921875 134.609375 C-25.92712006 134.24738878 -25.92712006 134.24738878 -24.35510826 132.25799465 C-22.80081802 129.66810634 -22.62316698 128.25943743 -22.61904907 125.26271057 C-22.60635986 123.83910217 -22.60635986 123.83910217 -22.59341431 122.38673401 C-22.60252335 120.83513832 -22.60252335 120.83513832 -22.61181641 119.25219727 C-22.60393097 117.61013809 -22.60393097 117.61013809 -22.59588623 115.93490601 C-22.58266976 112.31192811 -22.5914311 108.68938871 -22.6015625 105.06640625 C-22.5995421 102.55061254 -22.59663095 100.03481941 -22.59286499 97.51902771 C-22.58843928 92.24400349 -22.59459441 86.96909348 -22.60888672 81.6940918 C-22.62520465 75.60123759 -22.61993064 69.5086847 -22.6034075 63.41583782 C-22.5881356 57.54892323 -22.58977472 51.68212286 -22.5985527 45.8151989 C-22.60055498 43.32130834 -22.59809451 40.82741011 -22.59111404 38.33352852 C-22.58349977 34.84787733 -22.5951047 31.3628053 -22.61181641 27.87719727 C-22.60574371 26.84482437 -22.59967102 25.81245148 -22.59341431 24.74879456 C-22.59192111 17.84929794 -22.59192111 17.84929794 -26 12 C-28.71655372 11.183093 -28.71655372 11.183093 -31.6875 11.1875 C-32.68136719 11.13980469 -33.67523438 11.09210937 -34.69921875 11.04296875 C-35.45847656 11.02878906 -36.21773437 11.01460937 -37 11 C-37 9.68 -37 8.36 -37 7 C-32.37464663 5.99786549 -27.74817954 5.0011069 -23.12060547 4.00927734 C-21.54704666 3.67122959 -19.97380031 3.33172391 -18.40087891 2.99072266 C-16.13785394 2.50037675 -13.87375118 2.01531257 -11.609375 1.53125 C-10.90818542 1.37813354 -10.20699585 1.22501709 -9.48455811 1.06726074 C-6.2094211 0.37221687 -3.37102126 0 0 0 Z " fill="#667BAF" transform="translate(214,680)"/>
<path d="M0 0 C15.51 0 31.02 0 47 0 C47 1.32 47 2.64 47 4 C42.545 4.495 42.545 4.495 38 5 C38.45525337 12.13095197 40.16825943 17.63621267 43.05078125 24.140625 C43.46124695 25.09362488 43.87171265 26.04662476 44.2946167 27.02850342 C45.62310466 30.10714318 46.96778615 33.17841785 48.3125 36.25 C49.22916666 38.36789133 50.14444382 40.48638459 51.05834961 42.60546875 C52.42438152 45.77277778 53.79108739 48.93976526 55.1622467 52.1048584 C58.88473082 60.70072111 62.50450427 69.33495698 66.0625 78 C66.76596558 79.71171387 66.76596558 79.71171387 67.48364258 81.45800781 C68.30729778 83.46222001 69.12950439 85.46702866 69.94970703 87.47265625 C70.8695338 89.68605623 71.8300974 91.87467086 72.80859375 94.0625 C74 97 74 97 74 100 C74.66 100 75.32 100 76 100 C76.17400833 99.4494696 76.34801666 98.89893921 76.52729797 98.33172607 C78.28838302 92.88932521 80.33564089 87.67326764 82.66796875 82.453125 C83.02027557 81.65544708 83.3725824 80.85776917 83.73556519 80.03591919 C84.49114335 78.32599597 85.24845176 76.61683642 86.00735474 74.90838623 C87.2046975 72.21126105 88.39609125 69.51158268 89.58569336 66.81103516 C91.23203893 63.07368937 92.87942228 59.33680635 94.52832031 55.60058594 C94.93812134 54.67193726 95.34792236 53.74328857 95.7701416 52.78649902 C96.58203954 50.94697602 97.39412876 49.10753744 98.2064209 47.26818848 C100.48291833 42.11148288 102.75106317 36.95126271 105.00698853 31.78552246 C105.70587052 30.18945195 106.40795677 28.59478035 107.1133728 27.00158691 C108.09533242 24.78312574 109.06642417 22.56020008 110.03515625 20.3359375 C110.32284882 19.69286652 110.61054138 19.04979553 110.9069519 18.38723755 C112.68006942 14.27578181 113.63729053 10.46417055 114 6 C112.41727399 4.41727399 110.61965997 4.65264253 108.4375 4.4375 C107.19806641 4.31181641 107.19806641 4.31181641 105.93359375 4.18359375 C105.29550781 4.12300781 104.65742187 4.06242188 104 4 C104 2.68 104 1.36 104 0 C112.91 0 121.82 0 131 0 C131 1.32 131 2.64 131 4 C129.948125 4.04125 128.89625 4.0825 127.8125 4.125 C123.17321631 5.18975363 121.55242849 7.21627739 119 11 C117.58447922 13.57701052 116.42201035 16.23091736 115.27734375 18.9375 C114.93943817 19.71359116 114.60153259 20.48968231 114.25338745 21.28929138 C113.13867732 23.85556453 112.03819652 26.42768894 110.9375 29 C110.14834955 30.82341815 109.35820834 32.6464078 108.56713867 34.46899414 C106.89530677 38.32490568 105.22913789 42.18319225 103.56738281 46.04345703 C99.76139461 54.88141297 95.91774147 63.7029946 92.07852173 72.52655029 C90.81711427 75.42689045 89.5571545 78.3278554 88.29760742 81.22900391 C80.9347834 98.18354785 73.48857598 115.10066517 66 132 C65.34 132 64.68 132 64 132 C63.76104004 131.4323291 63.52208008 130.8646582 63.27587891 130.27978516 C58.57159035 119.11339338 53.84473034 107.95690258 49.0703125 96.8203125 C48.72494949 96.01467361 48.37958649 95.20903473 48.02375793 94.37898254 C46.18187376 90.08408852 44.33731617 85.7903589 42.48999023 81.49780273 C38.1756713 71.46346806 33.90557788 61.41192158 29.68701553 51.33694839 C28.12837538 47.61827578 26.56322813 43.9023359 24.99808693 40.18639565 C23.71825919 37.14593826 22.44465845 34.10308086 21.17883301 31.0567627 C19.75913059 27.64118031 18.32448766 24.23222761 16.88671875 20.82421875 C16.46655991 19.80214828 16.04640106 18.78007782 15.61351013 17.72703552 C13.16455178 11.96914908 10.96441944 6.81734508 4.98046875 4.07421875 C4.38878906 3.94660156 3.79710937 3.81898438 3.1875 3.6875 C2.135625 3.460625 1.08375 3.23375 0 3 C0 2.01 0 1.02 0 0 Z " fill="#6278AE" transform="translate(596,681)"/>
<path d="M0 0 C15.18 0 30.36 0 46 0 C46 1.32 46 2.64 46 4 C43.94921875 4.22786458 41.8984375 4.45572917 39.84765625 4.68359375 C37.98859771 4.81886614 37.98859771 4.81886614 37 6 C36.5968803 10.84189081 37.60230352 14.12283491 39.53515625 18.5390625 C39.80515945 19.16524475 40.07516266 19.791427 40.35334778 20.43658447 C40.93953621 21.79277294 41.53065351 23.14683945 42.12615967 24.4989624 C43.40858926 27.41082408 44.66740363 30.33271134 45.92803955 33.25405884 C46.59374184 34.79591959 47.26071516 36.33723213 47.92889404 37.87802124 C51.33506469 45.73951843 54.63129656 53.64556033 57.91424561 61.55914307 C59.48060215 65.33477781 61.05100789 69.10872742 62.62109375 72.8828125 C62.91485901 73.58924896 63.20862427 74.29568542 63.5112915 75.02352905 C66.97951104 83.36081689 70.4823315 91.68346745 74 100 C79.41164145 89.68112588 83.94961683 79.03026695 88.5 68.3125 C89.29073449 66.45523721 90.08167123 64.59806051 90.87280273 62.7409668 C92.07583902 59.91627336 93.2783569 57.09136582 94.47911072 54.26570129 C96.71406362 49.00809738 98.96327563 43.75708799 101.23318481 38.51448059 C102.54243716 35.48964069 103.84540139 32.46211543 105.14746094 29.43417358 C105.75187545 28.03273581 106.35908384 26.6324993 106.96923828 25.23355103 C107.81153671 23.30089399 108.64322603 21.36398853 109.47265625 19.42578125 C109.93937744 18.34723877 110.40609863 17.26869629 110.88696289 16.1574707 C112.08881615 12.74804577 112.68186814 9.59725171 113 6 C111.33657163 4.33657163 109.2174291 4.63951903 106.9375 4.4375 C106.01839844 4.35371094 105.09929687 4.26992188 104.15234375 4.18359375 C103.44207031 4.12300781 102.73179687 4.06242188 102 4 C102 2.68 102 1.36 102 0 C111.9 0 121.8 0 132 0 C132 1.32 132 2.64 132 4 C131.09507812 4.02126953 131.09507812 4.02126953 130.171875 4.04296875 C129.37265625 4.09066406 128.5734375 4.13835938 127.75 4.1875 C126.96109375 4.22230469 126.1721875 4.25710938 125.359375 4.29296875 C121.99740979 5.30044508 121.02969528 7.17679842 119 10 C117.99744884 11.91657276 117.06297222 13.86980176 116.1875 15.84765625 C115.42046753 17.56807129 115.42046753 17.56807129 114.63793945 19.32324219 C114.0916953 20.56954564 113.54572334 21.81596841 113 23.0625 C112.41996975 24.37292274 111.83947629 25.68314055 111.25854492 26.99316406 C107.05283748 36.50155008 102.95072745 46.05433963 98.87744141 55.62011719 C94.28677083 66.38475606 89.58671042 77.10036793 84.875 87.8125 C84.48665985 88.69545746 84.0983197 89.57841492 83.69821167 90.48812866 C83.31367828 91.36240509 82.9291449 92.23668152 82.53295898 93.13745117 C81.77196256 94.86767134 81.01097608 96.59789588 80.25 98.328125 C79.88161514 99.16563797 79.51323029 100.00315094 79.13368225 100.86604309 C74.72348192 110.89665599 70.35456303 120.94511702 66 131 C65.01 131 64.02 131 63 131 C62.32517578 129.39511719 62.32517578 129.39511719 61.63671875 127.7578125 C50.61776939 101.5629498 39.49242644 75.41522142 28.27539062 49.3046875 C27.78948456 48.17299133 27.30357849 47.04129517 26.802948 45.87530518 C25.85480478 43.66781472 24.90571176 41.46073194 23.95559692 39.25408936 C21.82046281 34.28667728 19.70696148 29.31309364 17.65771484 24.30957031 C17.29759811 23.43491119 16.93748138 22.56025208 16.56645203 21.65908813 C15.91028006 20.05948616 15.26074723 18.45713506 14.6197052 16.85140991 C11.72774637 9.69026778 11.72774637 9.69026778 5.859375 5.07421875 C4.81523437 4.88279297 4.81523437 4.88279297 3.75 4.6875 C1.89375 4.3471875 1.89375 4.3471875 0 4 C0 2.68 0 1.36 0 0 Z " fill="#6278AE" transform="translate(405,681)"/>
<path d="M0 0 C0.79317627 0.00684814 1.58635254 0.01369629 2.40356445 0.02075195 C11.86245331 0.27922328 18.92504371 3.43807958 26.1875 9.4375 C26.1875 10.0975 26.1875 10.7575 26.1875 11.4375 C27.1775 11.7675 28.1675 12.0975 29.1875 12.4375 C30.77037403 14.51539268 32.1795664 16.54496182 33.5625 18.75 C33.96025635 19.37938477 34.3580127 20.00876953 34.76782227 20.65722656 C40.34464545 29.69752652 43.08789165 37.93945823 45.1875 48.4375 C15.8175 48.4375 -13.5525 48.4375 -43.8125 48.4375 C-41.99688091 33.91254732 -35.66614235 19.62715482 -24.8125 9.4375 C-16.99225069 3.36783861 -9.92749381 -0.13149695 0 0 Z " fill="#FDFEFE" transform="translate(785.8125,684.5625)"/>
<path d="M0 0 C0.00423194 0.65414698 0.00846388 1.30829395 0.01282406 1.98226357 C0.11617741 17.90705328 0.22482213 33.83179681 0.33933926 49.75650978 C0.39459181 57.45761244 0.44806057 65.15871973 0.49731445 72.85986328 C0.54025406 79.57302049 0.58655642 86.28614469 0.63687855 92.99925077 C0.66340089 96.55300365 0.68825167 100.10675031 0.70907402 103.66054153 C0.73239503 107.63002128 0.7632244 111.59942361 0.79467773 115.56884766 C0.80331093 117.33183197 0.80331093 117.33183197 0.81211853 119.13043213 C0.82190735 120.21569183 0.83169617 121.30095154 0.84178162 122.4190979 C0.84823417 123.35748316 0.85468672 124.29586842 0.8613348 125.26268959 C1.01188957 128.23470512 1.45942521 131.07583094 2 134 C5.63 134.33 9.26 134.66 13 135 C13 136.32 13 137.64 13 139 C-3.17 139 -19.34 139 -36 139 C-36 137.68 -36 136.36 -36 135 C-35.30132813 134.95101562 -34.60265625 134.90203125 -33.8828125 134.8515625 C-32.51769531 134.73941406 -32.51769531 134.73941406 -31.125 134.625 C-30.22007812 134.55539062 -29.31515625 134.48578125 -28.3828125 134.4140625 C-25.82058097 134.20431868 -25.82058097 134.20431868 -24 132 C-23.01316944 129.07200319 -22.87443514 126.36855326 -22.87301636 123.29394531 C-22.87019653 122.35184204 -22.86737671 121.40973877 -22.86447144 120.43908691 C-22.86649567 119.41246948 -22.8685199 118.38585205 -22.87060547 117.328125 C-22.86885315 116.24156616 -22.86710083 115.15500732 -22.86529541 114.03552246 C-22.86089063 110.44033211 -22.86381009 106.84519086 -22.8671875 103.25 C-22.86651407 100.75423167 -22.86554371 98.25846341 -22.86428833 95.76269531 C-22.86281322 90.53059385 -22.86486467 85.29850519 -22.86962891 80.06640625 C-22.87507092 74.02020257 -22.87330804 67.97403261 -22.8678025 61.92782974 C-22.86271543 56.10792913 -22.8632568 50.28804131 -22.86618423 44.46813965 C-22.86685211 41.99296056 -22.86602992 39.51778062 -22.86370468 37.04260254 C-22.86116998 33.58567005 -22.8650304 30.12880264 -22.87060547 26.671875 C-22.86756912 25.13194885 -22.86756912 25.13194885 -22.86447144 23.56091309 C-22.86729126 22.61880981 -22.87011108 21.67670654 -22.87301636 20.70605469 C-22.87339338 19.88901062 -22.87377041 19.07196655 -22.87415886 18.23016357 C-22.94842165 15.67507681 -22.94842165 15.67507681 -24 12 C-27.63 11.67 -31.26 11.34 -35 11 C-35 9.68 -35 8.36 -35 7 C-30.62558685 6.01819922 -26.25037067 5.04002402 -21.875 4.0625 C-20.01875 3.64581055 -20.01875 3.64581055 -18.125 3.22070312 C-16.32675781 2.81948242 -16.32675781 2.81948242 -14.4921875 2.41015625 C-13.39245605 2.16402588 -12.29272461 1.91789551 -11.15966797 1.66430664 C-3.24366042 0 -3.24366042 0 0 0 Z " fill="#657AAE" transform="translate(578,680)"/>
<path d="M0 0 C16.10011127 9.49493741 24.4711057 25.531059 29.1328125 43.2578125 C29.1328125 43.9178125 29.1328125 44.5778125 29.1328125 45.2578125 C-0.2371875 45.2578125 -29.6071875 45.2578125 -59.8671875 45.2578125 C-57.99828077 28.4376519 -51.13791308 14.91393548 -38.109375 3.9140625 C-27.49090313 -3.92954738 -12.06878981 -5.85029472 0 0 Z " fill="#FDFEFE" transform="translate(364.8671875,687.7421875)"/>
<path d="M0 0 C5.39819864 2.43467739 8.44986781 5.38759379 11.17578125 10.703125 C11.92578125 13.265625 11.92578125 13.265625 11.92578125 19.265625 C2.35578125 19.265625 -7.21421875 19.265625 -17.07421875 19.265625 C-14.16161267 25.5241146 -14.16161267 25.5241146 -9.07421875 29.265625 C-4.18944521 30.15048231 -1.00732382 29.84661495 3.23828125 27.203125 C4.12515625 26.56375 5.01203125 25.924375 5.92578125 25.265625 C8.30078125 25.515625 8.30078125 25.515625 9.92578125 26.265625 C8.4194266 30.48341803 5.68565703 32.0403924 1.92578125 34.265625 C-3.07421625 35.93229083 -7.36075962 35.84186361 -12.19921875 33.765625 C-16.71195028 31.2370906 -19.35401997 28.15669711 -21.07421875 23.265625 C-21.8895713 17.8323465 -22.02505774 12.3616867 -19.57421875 7.328125 C-14.42559584 1.02106194 -8.27870369 -2.93106647 0 0 Z " fill="#4864A1" transform="translate(660.07421875,864.734375)"/>
<path d="M0 0 C4.01525589 2.6625684 6.34355922 5.37442765 7.89453125 10.02734375 C7.89453125 12.66734375 7.89453125 15.30734375 7.89453125 18.02734375 C-1.34546875 18.02734375 -10.58546875 18.02734375 -20.10546875 18.02734375 C-17.78973421 24.54979931 -17.78973421 24.54979931 -13.10546875 28.02734375 C-9.7257803 28.6373363 -6.49606965 28.55660828 -3.10546875 28.02734375 C-0.27680947 26.08279105 -0.27680947 26.08279105 1.89453125 24.02734375 C4.20703125 24.27734375 4.20703125 24.27734375 5.89453125 25.02734375 C5.76953125 26.77734375 5.76953125 26.77734375 4.89453125 29.02734375 C-0.45522711 33.09781207 -4.38037002 34.57858135 -11.10546875 34.02734375 C-17.44126672 31.85236833 -21.15494114 28.63581983 -24.35546875 22.71484375 C-26.12571969 16.37144454 -25.52236443 11.53124234 -22.3828125 5.85546875 C-16.95020451 -1.91963994 -8.62094189 -3.98258726 0 0 Z " fill="#4D67A3" transform="translate(808.10546875,865.97265625)"/>
<path d="M0 0 C4.02864027 2.51790017 7.05553895 5.42589825 9.5 9.5 C10 12 10 12 10 19 C0.43 19 -9.14 19 -19 19 C-16 27 -16 27 -11 29 C-6.08732787 29.68697529 -2.2257044 29.87930968 1.875 26.9375 C2.57625 26.298125 3.2775 25.65875 4 25 C6.3125 25.25 6.3125 25.25 8 26 C5.95110583 30.84284076 2.71023831 32.89454012 -2 35 C-7.24110241 36.18380112 -11.61714263 34.82850279 -16.23828125 32.27734375 C-19.89086025 29.62902151 -21.60613836 26.18158492 -23 22 C-23.73906158 15.46458405 -23.58666267 10.0838391 -19.60546875 4.6640625 C-14.1394832 -1.00141158 -7.47632103 -2.44873173 0 0 Z " fill="#45619F" transform="translate(267,865)"/>
<path d="M0 0 C3.77795392 3.02076906 6.30999705 6.16948599 7.9140625 10.79296875 C7.9140625 13.10296875 7.9140625 15.41296875 7.9140625 17.79296875 C-1.6559375 17.79296875 -11.2259375 17.79296875 -21.0859375 17.79296875 C-18.05754292 25.50355437 -18.05754292 25.50355437 -14.0859375 27.79296875 C-9.21698933 28.51367364 -4.64023605 28.60576634 -0.4609375 25.79296875 C0.3228125 25.13296875 1.1065625 24.47296875 1.9140625 23.79296875 C3.2340625 24.45296875 4.5540625 25.11296875 5.9140625 25.79296875 C3.22660865 29.93612677 0.72245995 31.84842034 -3.8671875 33.35546875 C-8.77675837 34.32355315 -13.21764524 33.51480894 -17.8359375 31.73046875 C-22.05534058 28.09709387 -24.63953178 24.45354683 -25.57421875 18.8828125 C-25.83672024 12.95027886 -25.29397602 8.25557506 -21.69140625 3.421875 C-15.77606167 -2.57982497 -7.52172713 -4.35246008 0 0 Z " fill="#3F5C9C" transform="translate(435.0859375,866.20703125)"/>
<path d="M0 0 C0.33 0 0.66 0 1 0 C1.33 6.27 1.66 12.54 2 19 C2.86625 17.783125 3.7325 16.56625 4.625 15.3125 C10.03419377 8.14658209 16.55376977 3.81541008 25 1 C35.51081549 0.07069009 46.55058656 -0.18529134 56 5 C56.67804688 5.29044189 57.35609375 5.58088379 58.0546875 5.88012695 C60.43719355 7.05322705 62.15212286 8.08401726 64 10 C64.98601679 13.64578582 64.76141778 17.06970128 64.5 20.8125 C64.46390625 21.79154297 64.4278125 22.77058594 64.390625 23.77929688 C64.29654015 26.19022119 64.16531451 28.59308437 64 31 C62.68 31 61.36 31 60 31 C59.36384766 29.69675781 59.36384766 29.69675781 58.71484375 28.3671875 C53.50482891 18.13036713 49.02625681 12.34762688 37.828125 8.69140625 C30.04723637 6.78917243 22.27167594 7.61368032 15 11 C10.25977243 14.30998649 6.39964265 18.32549136 3 23 C3 22.34 3 21.68 3 21 C2.01 21.33 1.02 21.66 0 22 C0 14.74 0 7.48 0 0 Z " fill="#5D74AB" transform="translate(213,680)"/>
<path d="M0 0 C9.9 0 19.8 0 30 0 C30 1.32 30 2.64 30 4 C29.39671875 4.01417969 28.7934375 4.02835938 28.171875 4.04296875 C27.37265625 4.09066406 26.5734375 4.13835938 25.75 4.1875 C24.96109375 4.22230469 24.1721875 4.25710938 23.359375 4.29296875 C19.99740979 5.30044508 19.02969528 7.17679842 17 10 C15.99744884 11.91657276 15.06297222 13.86980176 14.1875 15.84765625 C13.67614502 16.99459961 13.16479004 18.14154297 12.63793945 19.32324219 C12.0916953 20.56954564 11.54572334 21.81596841 11 23.0625 C10.41996975 24.37292274 9.83947629 25.68314055 9.25854492 26.99316406 C5.05947359 36.48654697 0.96690694 46.02544773 -3.10498047 55.57397461 C-7.48724785 65.83868693 -11.92473404 76.07898089 -16.39419556 86.30603027 C-17.21213167 88.17938811 -18.02836643 90.05348975 -18.84286499 91.92834473 C-19.9870319 94.56102209 -21.13724752 97.19097396 -22.2890625 99.8203125 C-22.80701637 101.01670853 -22.80701637 101.01670853 -23.33543396 102.23727417 C-25.77153941 107.77153941 -25.77153941 107.77153941 -28 110 C-27.125 105.25 -27.125 105.25 -26 103 C-26.66 102.67 -27.32 102.34 -28 102 C-22.56042724 89.06469268 -17.08370313 76.14801188 -11.48800659 63.27938843 C-9.28472972 58.20986095 -7.0901814 53.1365446 -4.89422607 48.06384277 C-3.9557098 45.89777976 -3.01525018 43.73256641 -2.07470703 41.56738281 C-0.43965304 37.80076165 1.18580897 34.03011277 2.80551147 30.25686646 C3.42897215 28.80835632 4.05539943 27.36111901 4.68496704 25.91525269 C5.56360362 23.89605927 6.4313899 21.87251497 7.296875 19.84765625 C7.79541992 18.69273682 8.29396484 17.53781738 8.80761719 16.34790039 C10.04928866 12.86161029 10.68443506 9.68321664 11 6 C9.33657163 4.33657163 7.2174291 4.63951903 4.9375 4.4375 C4.01839844 4.35371094 3.09929687 4.26992188 2.15234375 4.18359375 C1.08693359 4.09271484 1.08693359 4.09271484 0 4 C0 2.68 0 1.36 0 0 Z " fill="#4D68A4" transform="translate(507,681)"/>
<path d="M0 0 C1.32 0 2.64 0 4 0 C6.64 8.58 9.28 17.16 12 26 C14.97 17.42 17.94 8.84 21 0 C22.32 0 23.64 0 25 0 C27.97 8.25 30.94 16.5 34 25 C36.32219757 18.88734786 36.32219757 18.88734786 38.38671875 12.71875 C38.7105957 11.67460938 38.7105957 11.67460938 39.04101562 10.609375 C39.36102539 9.56523438 39.36102539 9.56523438 39.6875 8.5 C39.91244141 7.77296875 40.13738281 7.0459375 40.36914062 6.296875 C40.91488752 4.53190632 41.45775479 2.76604764 42 1 C43.65 0.67 45.3 0.34 47 0 C44.54891677 11.27498287 40.73312349 22.09934069 37 33 C34.525 33.495 34.525 33.495 32 34 C30.65909207 30.2318169 29.3285821 26.46004479 28 22.6875 C27.6184375 21.61564453 27.236875 20.54378906 26.84375 19.43945312 C26.4828125 18.41142578 26.121875 17.38339844 25.75 16.32421875 C25.41484375 15.37635498 25.0796875 14.42849121 24.734375 13.4519043 C24 11 24 11 24 8 C23.34 8 22.68 8 22 8 C21.90847656 8.95003906 21.81695312 9.90007813 21.72265625 10.87890625 C21.01753523 15.81475341 19.21711967 20.30344087 17.4375 24.9375 C17.10814453 25.81212891 16.77878906 26.68675781 16.43945312 27.58789062 C15.63262162 29.72774809 14.81936819 31.86491864 14 34 C12.35 33.67 10.7 33.34 9 33 C7.71096065 28.94546842 6.42944627 24.88865808 5.15478516 20.82958984 C4.72031273 19.44971061 4.28380777 18.07046961 3.84521484 16.69189453 C3.21433803 14.70770827 2.5908597 12.7213249 1.96875 10.734375 C1.59169922 9.54038086 1.21464844 8.34638672 0.82617188 7.11621094 C0 4 0 4 0 0 Z " fill="#526CA6" transform="translate(177,865)"/>
<path d="M0 0 C3.47060168 2.06759249 5.77725393 4.10944433 7 8 C7.48290996 13.21542759 6.89584879 16.60629839 4 21 C1.12721821 23.39398482 -0.72667978 23.96024433 -4.4375 24.5 C-9.02334763 23.85637226 -10.8284175 22.31909796 -14 19 C-16.07398081 15.32339766 -16.51233197 12.1840444 -16 8 C-11.95613116 0.74892484 -8.02336733 -1.15626735 0 0 Z " fill="#6278AD" transform="translate(570,644)"/>
<path d="M0 0 C8.91 0 17.82 0 27 0 C27 1.32 27 2.64 27 4 C25.948125 4.04125 24.89625 4.0825 23.8125 4.125 C19.16583271 5.19144823 17.54149957 7.19721266 15 11 C13.47578057 13.82067434 12.21042765 16.72471462 10.9609375 19.67578125 C10.59774414 20.51083191 10.23455078 21.34588257 9.86035156 22.20623779 C8.68924267 24.90439921 7.532085 27.60829899 6.375 30.3125 C5.57343316 32.16571812 4.77085721 34.01850009 3.96728516 35.87084961 C2.37605037 39.54154032 0.7895356 43.21420925 -0.79296875 46.88867188 C-3.69922938 53.63001749 -6.65894713 60.34727965 -9.625 67.0625 C-10.49243333 69.03244386 -11.35965147 71.00248249 -12.2265625 72.97265625 C-12.81767973 74.31511676 -13.40881271 75.65757034 -14 77 C-14.66 76.67 -15.32 76.34 -16 76 C-16.99 77.32 -17.98 78.64 -19 80 C-18.3228363 75.07600877 -16.33287327 70.87824853 -14.31640625 66.38671875 C-13.94477356 65.54774551 -13.57314087 64.70877228 -13.19024658 63.84437561 C-12.3955776 62.05099683 -11.59883306 60.25853657 -10.80020142 58.46691895 C-8.73368009 53.82627747 -6.68865817 49.17616627 -4.640625 44.52734375 C-3.83659293 42.70426239 -3.03255657 40.88118292 -2.22851562 39.05810547 C0.60305822 32.63294632 3.42797505 26.20653093 6.1875 19.75 C6.80999634 18.33593872 6.80999634 18.33593872 7.44506836 16.89331055 C7.80737549 16.03648682 8.16968262 15.17966309 8.54296875 14.296875 C9.0073938 13.21937988 9.0073938 13.21937988 9.48120117 12.12011719 C10.12849953 9.47487534 9.69026391 7.60595297 9 5 C6.03 4.67 3.06 4.34 0 4 C0 2.68 0 1.36 0 0 Z " fill="#506AA5" transform="translate(700,681)"/>
<path d="M0 0 C3.09668257 1.46432276 5.1307904 3.11921814 7 6 C8.13817465 11.26021255 7.90464068 15.49226553 5.125 20.125 C1.56449803 23.26661939 -1.11825525 23.38913362 -5.73828125 23.359375 C-9.32520929 22.78943134 -10.86838894 20.79773951 -13 18 C-14.74221711 14.51556578 -14.58675154 10.80112955 -14 7 C-10.65036427 0.95065786 -6.75604879 -0.77528429 0 0 Z " fill="#FDFDFE" transform="translate(591,331)"/>
<path d="M0 0 C4.25581705 2.40262757 6.53723048 5.36621228 8 10 C8.22705078 12.77075195 8.22705078 12.77075195 8.1953125 15.73828125 C8.18886719 16.80498047 8.18242188 17.87167969 8.17578125 18.97070312 C8.15902344 20.07349609 8.14226563 21.17628906 8.125 22.3125 C8.11597656 23.43462891 8.10695313 24.55675781 8.09765625 25.71289062 C8.07414486 28.47547909 8.04128155 31.23762932 8 34 C6.35 34 4.7 34 3 34 C2.98541748 33.26362305 2.97083496 32.52724609 2.95581055 31.76855469 C2.88128889 28.42850996 2.78464127 25.08946019 2.6875 21.75 C2.66494141 20.59113281 2.64238281 19.43226563 2.61914062 18.23828125 C2.5659668 16.56572266 2.5659668 16.56572266 2.51171875 14.859375 C2.48553467 13.83295898 2.45935059 12.80654297 2.43237305 11.74902344 C1.94113855 8.62575949 1.21498355 7.23269827 -1 5 C-4.88245475 3.92154035 -7.0710119 3.60776058 -10.8125 5.1875 C-13.80663523 7.66835491 -14.83842264 9.69995794 -15.31884766 13.56542969 C-15.35026855 14.50805664 -15.38168945 15.45068359 -15.4140625 16.421875 C-15.45273437 17.44667969 -15.49140625 18.47148438 -15.53125 19.52734375 C-15.5621875 20.59082031 -15.593125 21.65429688 -15.625 22.75 C-15.68300781 24.36841797 -15.68300781 24.36841797 -15.7421875 26.01953125 C-15.83634631 28.67951775 -15.92197387 31.3394994 -16 34 C-17.32 34 -18.64 34 -20 34 C-20 22.78 -20 11.56 -20 0 C-18.68 0 -17.36 0 -16 0 C-15.67 1.32 -15.34 2.64 -15 4 C-14.401875 3.360625 -13.80375 2.72125 -13.1875 2.0625 C-9.20285074 -1.69445501 -5.04236242 -1.3916539 0 0 Z " fill="#5972AA" transform="translate(715,865)"/>
<path d="M0 0 C3.0951686 1.69483019 5.58375013 3.46406266 7.8125 6.25 C7.8125 6.91 7.8125 7.57 7.8125 8.25 C6.1875 9.0625 6.1875 9.0625 3.8125 9.25 C2.94625 8.445625 2.08 7.64125 1.1875 6.8125 C-1.56774744 4.30263083 -3.53373725 3.80898259 -7.25 3.6875 C-11.69010855 3.90816805 -14.11769323 4.88311515 -17.1875 8.25 C-19.27290153 12.42080307 -18.64177114 17.70728864 -18.1875 22.25 C-16.37946596 25.32365786 -15.32710536 26.68019732 -12.1875 28.25 C-6.83706244 28.9346995 -2.53880479 28.99051513 1.9375 25.75 C3.360625 24.5125 3.360625 24.5125 4.8125 23.25 C5.8025 24.24 6.7925 25.23 7.8125 26.25 C3.27805448 31.18454365 -0.33054271 33.88136035 -7.0625 34.75 C-11.96189384 34.54351214 -15.50929498 32.37361979 -19.1875 29.25 C-23.64412234 23.65065399 -24.77971613 19.35659359 -24.1875 12.25 C-22.36743296 6.95795726 -19.94399821 3.34172383 -15.1875 0.25 C-14.259375 -0.36875 -14.259375 -0.36875 -13.3125 -1 C-8.53034899 -2.687818 -4.48776613 -2.12270502 0 0 Z " fill="#4D68A3" transform="translate(609.1875,865.75)"/>
<path d="M0 0 C3.31426251 2.60910028 5.43495094 5.10511283 7 9 C7.22705078 11.74902344 7.22705078 11.74902344 7.1953125 14.859375 C7.18886719 15.97441406 7.18242187 17.08945312 7.17578125 18.23828125 C7.15902344 19.39714844 7.14226562 20.55601562 7.125 21.75 C7.11597656 22.92433594 7.10695313 24.09867188 7.09765625 25.30859375 C7.07410063 28.20593536 7.04120652 31.10286441 7 34 C5.68 34 4.36 34 3 34 C2.98018066 33.29391602 2.96036133 32.58783203 2.93994141 31.86035156 C2.84459585 28.65653006 2.73495487 25.45335199 2.625 22.25 C2.5940625 21.13882813 2.563125 20.02765625 2.53125 18.8828125 C2.49257813 17.81289063 2.45390625 16.74296875 2.4140625 15.640625 C2.36693115 14.16384277 2.36693115 14.16384277 2.31884766 12.65722656 C1.99498701 9.9582225 1.4631862 8.27635632 0 6 C-3.45031261 4.27484369 -7.22716304 4.50322076 -11 5 C-14.03215675 7.19831364 -14.81654398 8.44963194 -16 12 C-16.14777936 13.69867188 -16.24747066 15.40177489 -16.31640625 17.10546875 C-16.35830078 18.08837891 -16.40019531 19.07128906 -16.44335938 20.08398438 C-16.48267578 21.10814453 -16.52199219 22.13230469 -16.5625 23.1875 C-16.62727539 24.74114258 -16.62727539 24.74114258 -16.69335938 26.32617188 C-16.79944366 28.8839819 -16.90150146 31.44188845 -17 34 C-18.32 34 -19.64 34 -21 34 C-21 22.78 -21 11.56 -21 0 C-19.68 0 -18.36 0 -17 0 C-16.67 1.32 -16.34 2.64 -16 4 C-15.21625 3.360625 -14.4325 2.72125 -13.625 2.0625 C-9.00093025 -1.57069766 -5.61754519 -1.42868364 0 0 Z " fill="#415D9D" transform="translate(381,865)"/>
<path d="M0 0 C3.6578218 2.03993908 5.66946174 3.50419262 8 7 C6.02 7.99 6.02 7.99 4 9 C3.278125 8.34 2.55625 7.68 1.8125 7 C-1.22207622 4.84207914 -2.3829832 4.41345673 -6 5 C-8.34973818 6.89755144 -8.34973818 6.89755144 -8.125 10.125 C-8.063125 11.548125 -8.063125 11.548125 -8 13 C-7.10796875 13.30292969 -6.2159375 13.60585938 -5.296875 13.91796875 C-4.12640625 14.33691406 -2.9559375 14.75585938 -1.75 15.1875 C-0.58984375 15.59355469 0.5703125 15.99960937 1.765625 16.41796875 C5.32974384 18.16128775 6.91649388 19.65095683 9 23 C9.08087401 27.52894469 8.50508097 29.40426348 5.5625 32.875 C1.54746451 36.20454163 -0.77144885 36.4357126 -6 36 C-9.10039543 34.24505919 -11.48825667 32.51174333 -14 30 C-13.625 27.875 -13.625 27.875 -13 26 C-10.53199953 27.15173355 -8.95216435 28.04783565 -7 30 C-5.08819451 30.28005058 -5.08819451 30.28005058 -3 30.1875 C-1.948125 30.17783203 -1.948125 30.17783203 -0.875 30.16796875 C1.09056373 30.10706133 1.09056373 30.10706133 3 29 C3 27.02 3 25.04 3 23 C1.205625 22.3503125 1.205625 22.3503125 -0.625 21.6875 C-11.6869073 17.49768024 -11.6869073 17.49768024 -14 13 C-14.52866286 9.96018857 -14.60695589 8.00229114 -12.98046875 5.31640625 C-9.16972713 0.51556258 -6.00898713 -0.58911639 0 0 Z " fill="#4965A1" transform="translate(478,864)"/>
<path d="M0 0 C3.0625 2.5625 3.0625 2.5625 5 5 C4.01 6.485 4.01 6.485 3 8 C2.34 8 1.68 8 1 8 C0.443125 7.319375 -0.11375 6.63875 -0.6875 5.9375 C-2.97843912 3.56427496 -2.97843912 3.56427496 -6.75 4.25 C-8.35875 4.62125 -8.35875 4.62125 -10 5 C-10.67801034 7.90073181 -10.67801034 7.90073181 -11 11 C-8.085189 13.914811 -4.60231394 14.56152194 -0.7265625 15.8046875 C2.29452728 17.12911941 3.93533027 18.44076985 6 21 C6.60070929 25.12987637 6.47042865 27.21595224 4.3125 30.8125 C1.34517606 33.61942805 -0.76733115 34.96369644 -4.921875 35.03125 C-9.68208267 34.67333965 -12.62918638 33.57510535 -16 30 C-16.8125 27.75 -16.8125 27.75 -17 26 C-16.01 25.34 -15.02 24.68 -14 24 C-13.505 24.825 -13.01 25.65 -12.5 26.5 C-9.83434657 29.16565343 -9.46584742 29.39603396 -5.9375 29.5 C-2.16697863 29.29223173 -2.16697863 29.29223173 0.0625 27.75 C1.16706557 26.04344898 1.16706557 26.04344898 0.921875 24.046875 C0.13267423 21.73039044 0.13267423 21.73039044 -2.58203125 20.65625 C-3.64808594 20.2746875 -4.71414063 19.893125 -5.8125 19.5 C-10.12592481 17.94485537 -13.12090962 16.65003165 -16 13 C-16.45468446 9.81720877 -16.71154438 8.01359974 -16 5 C-11.13364767 -1.01890946 -7.30971415 -1.90304627 0 0 Z " fill="#4863A1" transform="translate(525,865)"/>
<path d="M0 0 C1.65 0 3.3 0 5 0 C5 2.97 5 5.94 5 9 C7.64 9 10.28 9 13 9 C13 10.32 13 11.64 13 13 C10.36 13 7.72 13 5 13 C5.10952116 16.79228144 5.24023241 20.5835384 5.375 24.375 C5.4059375 25.45523438 5.436875 26.53546875 5.46875 27.6484375 C5.50742187 28.6796875 5.54609375 29.7109375 5.5859375 30.7734375 C5.6173584 31.72653809 5.6487793 32.67963867 5.68115234 33.66162109 C5.78555796 36.18895176 5.78555796 36.18895176 8 38 C10.57061311 38.64767793 10.57061311 38.64767793 13 39 C13 40.32 13 41.64 13 43 C10.09703073 43.34559158 7.87462509 43.51874316 5.30078125 41.9921875 C2.59652179 39.80520769 1.11110234 38.33330702 0 35 C-0.08178114 33.29983156 -0.10749501 31.59663703 -0.09765625 29.89453125 C-0.09443359 28.91162109 -0.09121094 27.92871094 -0.08789062 26.91601562 C-0.07951172 25.89185547 -0.07113281 24.86769531 -0.0625 23.8125 C-0.05798828 22.77673828 -0.05347656 21.74097656 -0.04882812 20.67382812 C-0.0370401 18.11582734 -0.02058515 15.55794267 0 13 C-1.65 13 -3.3 13 -5 13 C-5 11.68 -5 10.36 -5 9 C-3.35 9 -1.7 9 0 9 C0 6.03 0 3.06 0 0 Z " fill="#4C67A4" transform="translate(749,856)"/>
<path d="M0 0 C2.55752618 1.98976579 4.48480137 4.13003553 6 7 C6 8.32 6 9.64 6 11 C-1.92 11 -9.84 11 -18 11 C-17.00608894 6.03044471 -16.34611791 4.53732465 -13 1 C-8.66333559 -1.65472957 -4.77319553 -1.56633359 0 0 Z " fill="#F9FAFC" transform="translate(432,869)"/>
<path d="M0 0 C4.5378337 3.45269955 5.11307764 5.33923293 7 11 C-0.92 11 -8.84 11 -17 11 C-15.96700133 4.80200795 -15.54430209 3.78691841 -11 0 C-7.14002111 -1.28665963 -3.86491784 -1.09455681 0 0 Z " fill="#F8F9FB" transform="translate(805,869)"/>
<path d="M0 0 C2.85408007 1.35525734 3.8705564 2.48834857 6 5 C6.33 6.98 6.66 8.96 7 11 C-0.92 11 -8.84 11 -17 11 C-15.79726169 3.78357012 -15.79726169 3.78357012 -11.94140625 0.921875 C-8.03798977 -0.93165878 -4.1756585 -0.83919231 0 0 Z " fill="#FAFBFD" transform="translate(660,869)"/>
<path d="M0 0 C2.7400758 1.89257607 4.55454023 3.99929871 6 7 C6 8.32 6 9.64 6 11 C-1.92 11 -9.84 11 -18 11 C-17.01221524 6.06107618 -16.26400276 4.56073029 -13 1 C-8.98624357 -1.00687822 -4.34058781 -0.75700828 0 0 Z " fill="#FBFCFD" transform="translate(266,869)"/>
<path d="M0 0 C0.99 0 1.98 0 3 0 C1.24391214 11.33289257 -6.69030341 20.9647914 -15.625 27.6875 C-21.26768522 31.45795787 -27.44258131 34.23418739 -34 36 C-37 35 -37 35 -39 33 C-38.03320312 32.64808594 -37.06640625 32.29617188 -36.0703125 31.93359375 C-19.01297305 25.54505243 -8.16654435 16.54962586 0 0 Z " fill="#4C67A3" transform="translate(408,781)"/>
<path d="M0 0 C1.0209375 0.495 1.0209375 0.495 2.0625 1 C1.4025 1.66 0.7425 2.32 0.0625 3 C1.7125 4.32 3.3625 5.64 5.0625 7 C4.7325 7.66 4.4025 8.32 4.0625 9 C3.44375 8.34 2.825 7.68 2.1875 7 C-2.16587426 4.21384048 -5.89197256 4.15493629 -10.9375 5 C-13.87173195 6.79646854 -15.40955355 7.9441071 -16.9375 11 C-17.5975 11 -18.2575 11 -18.9375 11 C-18.9375 12.65 -18.9375 14.3 -18.9375 16 C-10.6875 16 -2.4375 16 6.0625 16 C5.7325 16.66 5.4025 17.32 5.0625 18 C-2.8575 18 -10.7775 18 -18.9375 18 C-18.9375 19.65 -18.9375 21.3 -18.9375 23 C-19.9275 23 -20.9175 23 -21.9375 23 C-22.71471635 9.85209003 -22.71471635 9.85209003 -17.9375 4 C-12.29036687 -0.80190062 -7.26778285 -2.47413884 0 0 Z " fill="#4F6AA5" transform="translate(660.9375,865)"/>
<path d="M0 0 C1.32 0 2.64 0 4 0 C4 16.17 4 32.34 4 49 C2.68 49 1.36 49 0 49 C0 32.83 0 16.66 0 0 Z " fill="#3F5D9D" transform="translate(330,850)"/>
<path d="M0 0 C1.32 0 2.64 0 4 0 C4 16.17 4 32.34 4 49 C2.68 49 1.36 49 0 49 C0 32.83 0 16.66 0 0 Z " fill="#415E9D" transform="translate(300,850)"/>
<path d="M0 0 C0.24492187 0.64453125 0.48984375 1.2890625 0.7421875 1.953125 C1.79577869 4.16977388 1.79577869 4.16977388 3.9453125 4.609375 C5.96354167 4.73958333 7.98177083 4.86979167 10 5 C10 5.66 10 6.32 10 7 C7.03 7 4.06 7 1 7 C1.73579212 8.46555316 2.48925126 9.92224487 3.25 11.375 C3.66765625 12.18710937 4.0853125 12.99921875 4.515625 13.8359375 C6.20030468 16.29202314 7.20603397 17.03973379 10 18 C14.91267213 18.68697529 18.7742956 18.87930968 22.875 15.9375 C23.57625 15.298125 24.2775 14.65875 25 14 C27.3125 14.25 27.3125 14.25 29 15 C26.95110583 19.84284076 23.71023831 21.89454012 19 24 C13.7598699 25.18358151 9.37906335 23.83157341 4.76171875 21.2734375 C1.49896359 18.91499364 -0.33152871 15.894002 -1.65625 12.140625 C-2.0885609 9.44850714 -1.65613685 7.4039059 -1.0625 4.75 C-0.86785156 3.85796875 -0.67320312 2.9659375 -0.47265625 2.046875 C-0.31667969 1.37140625 -0.16070312 0.6959375 0 0 Z " fill="#5D75AC" transform="translate(246,876)"/>
<path d="M0 0 C1.32 0 2.64 0 4 0 C4.33 1.32 4.66 2.64 5 4 C5.7425 3.34 6.485 2.68 7.25 2 C10 0 10 0 14 0 C14 1.32 14 2.64 14 4 C13.071875 4.391875 12.14375 4.78375 11.1875 5.1875 C7.48375751 7.29354965 6.68392152 8.12306442 5 12 C4.49824726 15.7655668 4.39748285 19.51740887 4.3125 23.3125 C4.27833984 24.33923828 4.24417969 25.36597656 4.20898438 26.42382812 C4.12676591 28.94910963 4.05753064 31.4740554 4 34 C2.68 34 1.36 34 0 34 C0 22.78 0 11.56 0 0 Z " fill="#4762A0" transform="translate(839,865)"/>
<path d="M0 0 C1.32 0 2.64 0 4 0 C4.33 1.32 4.66 2.64 5 4 C5.99 3.01 6.98 2.02 8 1 C8.99 1.33 9.98 1.66 11 2 C12.010625 1.979375 13.02125 1.95875 14.0625 1.9375 C17 2 17 2 19 4 C17.948125 3.938125 16.89625 3.87625 15.8125 3.8125 C11.77539551 4.01104612 10.11637422 4.50690063 7 7 C5.02271791 10.15148345 4.70878446 12.73646605 4.5859375 16.421875 C4.54726563 17.44667969 4.50859375 18.47148438 4.46875 19.52734375 C4.4378125 20.59082031 4.406875 21.65429688 4.375 22.75 C4.31699219 24.36841797 4.31699219 24.36841797 4.2578125 26.01953125 C4.16365369 28.67951775 4.07802613 31.3394994 4 34 C2.68 34 1.36 34 0 34 C0 22.78 0 11.56 0 0 Z " fill="#23458E" transform="translate(695,865)"/>
<path d="M0 0 C0.33 0 0.66 0 1 0 C1.33 6.27 1.66 12.54 2 19 C2.86625 17.783125 3.7325 16.56625 4.625 15.3125 C10.03419377 8.14658209 16.55376977 3.81541008 25 1 C26.40824893 0.91978001 27.81997231 0.89234023 29.23046875 0.90234375 C30.43413086 0.90717773 30.43413086 0.90717773 31.66210938 0.91210938 C32.49548828 0.92048828 33.32886719 0.92886719 34.1875 0.9375 C35.03248047 0.94201172 35.87746094 0.94652344 36.74804688 0.95117188 C38.83206155 0.96294597 40.91603977 0.9808811 43 1 C43 1.33 43 1.66 43 2 C41.39318359 2.07347656 41.39318359 2.07347656 39.75390625 2.1484375 C38.35674361 2.22345294 36.9596095 2.2990013 35.5625 2.375 C34.85544922 2.4059375 34.14839844 2.436875 33.41992188 2.46875 C31.60760812 2.57280629 29.80182012 2.77919892 28 3 C27.67 3.66 27.34 4.32 27 5 C29.97 5.33 32.94 5.66 36 6 C36 6.33 36 6.66 36 7 C34.9378125 7.09796875 33.875625 7.1959375 32.78125 7.296875 C22.65824205 8.32389886 15.16947231 9.20534885 8.125 17.125 C7.07953605 18.41359511 6.03727696 19.70480552 5 21 C4.34 21.66 3.68 22.32 3 23 C3 22.34 3 21.68 3 21 C2.01 21.33 1.02 21.66 0 22 C0 14.74 0 7.48 0 0 Z " fill="#4661A0" transform="translate(213,680)"/>
<path d="M0 0 C0.625 1.875 0.625 1.875 1 4 C0.34 4.66 -0.32 5.32 -1 6 C7.91 6 16.82 6 26 6 C25.505 5.01 25.505 5.01 25 4 C30.445 4.495 30.445 4.495 36 5 C36 6.32 36 7.64 36 9 C19.83 9 3.66 9 -13 9 C-13 7.68 -13 6.36 -13 5 C-12.31292969 4.97421875 -11.62585938 4.9484375 -10.91796875 4.921875 C-10.01691406 4.86515625 -9.11585938 4.8084375 -8.1875 4.75 C-7.29417969 4.70359375 -6.40085937 4.6571875 -5.48046875 4.609375 C-2.83946485 4.20878584 -2.83946485 4.20878584 -1.17578125 1.953125 C-0.78777344 1.30859375 -0.39976562 0.6640625 0 0 Z " fill="#536CA5" transform="translate(555,810)"/>
<path d="M0 0 C0.99 0 1.98 0 3 0 C1.47363314 10.45561302 -6.06210256 19.46442156 -14 26 C-17.19363659 28.28050682 -20.36614832 30.49136122 -24 32 C-24.99 31.67 -25.98 31.34 -27 31 C-26.01 30.34 -25.02 29.68 -24 29 C-24.66 28.67 -25.32 28.34 -26 28 C-25.154375 27.46632813 -24.30875 26.93265625 -23.4375 26.3828125 C-12.7261901 19.42741646 -5.77300244 11.49049524 0 0 Z " fill="#4E69A5" transform="translate(845,781)"/>
<path d="M0 0 C3.50685646 2.22100909 4.90496596 3.98487518 6 8 C6 10.31 6 12.62 6 15 C-3.57 15 -13.14 15 -23 15 C-23.33 15.99 -23.66 16.98 -24 18 C-24.33 16.35 -24.66 14.7 -25 13 C-21.7 13.33 -18.4 13.66 -15 14 C-15 13.34 -15 12.68 -15 12 C-17.64 12 -20.28 12 -23 12 C-23 11.67 -23 11.34 -23 11 C-15.08 11 -7.16 11 1 11 C1 9.68 1 8.36 1 7 C1.66 7 2.32 7 3 7 C2.505 6.21625 2.01 5.4325 1.5 4.625 C0 2 0 2 0 0 Z " fill="#425E9E" transform="translate(271,869)"/>
<path d="M0 0 C3.63 0 7.26 0 11 0 C11 0.33 11 0.66 11 1 C27.335 1.495 27.335 1.495 44 2 C43.01 1.34 42.02 0.68 41 0 C44.3 0 47.6 0 51 0 C51 1.32 51 2.64 51 4 C34.17 4 17.34 4 0 4 C0 2.68 0 1.36 0 0 Z " fill="#546BA6" transform="translate(177,815)"/>
<path d="M0 0 C2.1875 -0.375 2.1875 -0.375 5 0 C10.40451446 5.40451446 12 9.20522216 12 17 C2.76 17 -6.48 17 -16 17 C-16 16.67 -16 16.34 -16 16 C-8.74 15.67 -1.48 15.34 6 15 C-1.92 14.67 -9.84 14.34 -18 14 C-18 12.35 -18 10.7 -18 9 C-17.67 10.32 -17.34 11.64 -17 13 C-9.08 13 -1.16 13 7 13 C4.81046392 5.02627004 4.81046392 5.02627004 0 0 Z " fill="#3E5C9C" transform="translate(660,867)"/>
<path d="M0 0 C4.5 3 4.5 3 9 6 C13.89437031 6.71341669 17.79355306 6.86549455 21.875 3.9375 C22.57625 3.298125 23.2775 2.65875 24 2 C26.3125 2.25 26.3125 2.25 28 3 C27.875 4.75 27.875 4.75 27 7 C21.55275105 11.14464594 17.79955658 12.2472566 11 12 C10.34 11.67 9.68 11.34 9 11 C9 10.34 9 9.68 9 9 C8.2575 8.773125 7.515 8.54625 6.75 8.3125 C3.4574253 6.7410439 2.02502891 5.00004284 0 2 C0 1.34 0 0.68 0 0 Z " fill="#4D68A4" transform="translate(786,888)"/>
<path d="M0 0 C1.03189453 -0.00773438 2.06378906 -0.01546875 3.12695312 -0.0234375 C4.61678711 -0.01957031 4.61678711 -0.01957031 6.13671875 -0.015625 C7.03479248 -0.01336914 7.93286621 -0.01111328 8.8581543 -0.00878906 C11.44249048 0.26370635 13.08640633 0.94423252 15.3125 2.25 C13.6625 2.58 12.0125 2.91 10.3125 3.25 C10.3125 3.58 10.3125 3.91 10.3125 4.25 C9.02214844 4.28738281 7.73179687 4.32476563 6.40234375 4.36328125 C4.68486851 4.42897702 2.96742185 4.4954231 1.25 4.5625 C-0.02133789 4.59633789 -0.02133789 4.59633789 -1.31835938 4.63085938 C-5.44604337 4.80616642 -8.8435638 5.1093177 -12.62109375 6.85546875 C-15.6875 8.25 -15.6875 8.25 -18.6875 7.25 C-16.7075 6.59 -14.7275 5.93 -12.6875 5.25 C-12.6875 4.59 -12.6875 3.93 -12.6875 3.25 C-15.3275 3.58 -17.9675 3.91 -20.6875 4.25 C-15.3965119 -1.0409881 -6.94642144 -0.05265765 0 0 Z " fill="#5D74AB" transform="translate(785.6875,680.75)"/>
<path d="M0 0 C0.93884033 0.00273926 1.87768066 0.00547852 2.8449707 0.00830078 C19.95252475 0.26502475 19.95252475 0.26502475 25 5.3125 C23.35 5.3125 21.7 5.3125 20 5.3125 C20.309375 5.93125 20.61875 6.55 20.9375 7.1875 C21.625 8.5625 22.3125 9.9375 23 11.3125 C20.57177191 10.35488892 18.16122257 9.38516369 15.78125 8.3125 C9.84978734 5.71240678 4.2014197 4.52531515 -2.21484375 3.70703125 C-5 3.3125 -5 3.3125 -8 2.3125 C-9.99961564 2.27329185 -12.00049364 2.26806653 -14 2.3125 C-9.39418438 -0.32286062 -5.19155894 -0.03000113 0 0 Z " fill="#45619F" transform="translate(349,680.6875)"/>
<path d="M0 0 C1.299375 0.10054687 1.299375 0.10054687 2.625 0.203125 C5.31381027 0.82225894 6.27897313 1.64400659 8 3.75 C5 4.75 5 4.75 2 3.75 C-3.33295432 3.406509 -3.33295432 3.406509 -8 5.75 C-8.99 6.245 -8.99 6.245 -10 6.75 C-10.84250586 8.89076292 -10.84250586 8.89076292 -11.5 11.4375 C-11.75394531 12.33597656 -12.00789062 13.23445312 -12.26953125 14.16015625 C-12.51058594 15.01480469 -12.75164063 15.86945312 -13 16.75 C-13.65629516 18.75342734 -14.31760646 20.75531118 -15 22.75 C-15.33 22.75 -15.66 22.75 -16 22.75 C-17.59547597 12.03256362 -17.59547597 12.03256362 -15.375 7.25 C-10.56126075 2.18290605 -7.14225048 -0.63770094 0 0 Z " fill="#506BA6" transform="translate(801,864.25)"/>
<path d="M0 0 C1.32 0 2.64 0 4 0 C4 1.65 4 3.3 4 5 C3.67 5 3.34 5 3 5 C3 6.98 3 8.96 3 11 C3.66 10.34 4.32 9.68 5 9 C4.67 17.25 4.34 25.5 4 34 C2.68 34 1.36 34 0 34 C0 22.78 0 11.56 0 0 Z " fill="#415F9F" transform="translate(360,865)"/>
<path d="M0 0 C8.91 0 17.82 0 27 0 C27.33 0.99 27.66 1.98 28 3 C27.39671875 3.01417969 26.7934375 3.02835938 26.171875 3.04296875 C20.84875712 3.29462042 20.84875712 3.29462042 16.625 6.3125 C16.08875 7.199375 15.5525 8.08625 15 9 C14.13375 10.1446875 14.13375 10.1446875 13.25 11.3125 C12.8375 11.869375 12.425 12.42625 12 13 C11.89042969 12.37351562 11.78085937 11.74703125 11.66796875 11.1015625 C11.50941406 10.28429687 11.35085938 9.46703125 11.1875 8.625 C11.03667969 7.81289063 10.88585937 7.00078125 10.73046875 6.1640625 C10.12455058 3.64179359 10.12455058 3.64179359 7 2 C4.67612053 1.60612212 2.34206251 1.26513915 0 1 C0 0.67 0 0.34 0 0 Z " fill="#6379AE" transform="translate(509,682)"/>
<path d="M0 0 C1.32 0.66 2.64 1.32 4 2 C1.31640493 6.13720906 -1.18458058 8.05944199 -5.7734375 9.5546875 C-9.55176358 10.31035272 -13.39864832 10.47747761 -17 9 C-18.76171875 6.4375 -18.76171875 6.4375 -20 4 C-19.05898438 4.04640625 -18.11796875 4.0928125 -17.1484375 4.140625 C-7.71747814 4.62002348 -7.71747814 4.62002348 0 0 Z " fill="#5E75AC" transform="translate(437,890)"/>
<path d="M0 0 C1.32 0 2.64 0 4 0 C1.54891677 11.27498287 -2.26687651 22.09934069 -6 33 C-8.475 33.495 -8.475 33.495 -11 34 C-10.67 33.34 -10.34 32.68 -10 32 C-9.34 32 -8.68 32 -8 32 C-7.29546997 30.13133238 -6.61208312 28.25468584 -5.9375 26.375 C-5.55464844 25.33085938 -5.17179688 24.28671875 -4.77734375 23.2109375 C-3.79117603 20.05491227 -3.79117603 20.05491227 -4.49609375 17.02734375 C-5.12941386 13.22251361 -4.3316067 10.82812366 -3.125 7.1875 C-2.75632813 6.04667969 -2.38765625 4.90585937 -2.0078125 3.73046875 C-1 1 -1 1 0 0 Z " fill="#4562A0" transform="translate(220,865)"/>
<path d="M0 0 C0.99 0 1.98 0 3 0 C3.01981934 0.68626465 3.03963867 1.3725293 3.06005859 2.07958984 C3.15510945 5.17845779 3.26486847 8.27663294 3.375 11.375 C3.4059375 12.45523438 3.436875 13.53546875 3.46875 14.6484375 C3.50742187 15.6796875 3.54609375 16.7109375 3.5859375 17.7734375 C3.6173584 18.72653809 3.6487793 19.67963867 3.68115234 20.66162109 C3.78555796 23.18895176 3.78555796 23.18895176 6 25 C8.57061311 25.64767793 8.57061311 25.64767793 11 26 C11 27.32 11 28.64 11 30 C7.15584313 30.45763772 5.22874972 30.12214791 1.78125 28.28125 C-0.48584815 26.29321731 -0.9619197 25.27027436 -1.38818359 22.24487305 C-1.3660333 18.86695333 -1.16160331 15.55320335 -0.875 12.1875 C-0.80023437 11.01767578 -0.72546875 9.84785156 -0.6484375 8.64257812 C-0.46009672 5.75860986 -0.24307615 2.87978593 0 0 Z " fill="#5B73AA" transform="translate(751,869)"/>
<path d="M0 0 C0.33 0 0.66 0 1 0 C1.33 1.98 1.66 3.96 2 6 C2.66 5.67 3.32 5.34 4 5 C4.99 5.33 5.98 5.66 7 6 C8.84466442 6.14889747 10.69357275 6.2479101 12.54296875 6.31640625 C14.15268555 6.37924805 14.15268555 6.37924805 15.79492188 6.44335938 C16.91447266 6.48267578 18.03402344 6.52199219 19.1875 6.5625 C20.31865234 6.60568359 21.44980469 6.64886719 22.61523438 6.69335938 C25.41003354 6.79949099 28.20492162 6.90154385 31 7 C31 5.35 31 3.7 31 2 C31.33 2 31.66 2 32 2 C32 3.98 32 5.96 32 8 C22.76 8 13.52 8 4 8 C4.33 9.98 4.66 11.96 5 14 C4.34 14 3.68 14 3 14 C5.38957269 17.24299151 7.2047869 19.50902342 11 21 C10.67 21.66 10.34 22.32 10 23 C4.45091256 19.72099379 1.10161337 16.30484011 -1 10 C-1.47469459 2.94938918 -1.47469459 2.94938918 0 0 Z " fill="#365598" transform="translate(784,876)"/>
<path d="M0 0 C0.99 0.33 1.98 0.66 3 1 C2.67 3.31 2.34 5.62 2 8 C10.25 8 18.5 8 27 8 C26.67 8.66 26.34 9.32 26 10 C18.08 10 10.16 10 2 10 C2 11.65 2 13.3 2 15 C1.01 15 0.02 15 -1 15 C-1.02703381 13.06257659 -1.04641125 11.12504521 -1.0625 9.1875 C-1.07410156 8.10855469 -1.08570313 7.02960937 -1.09765625 5.91796875 C-1 3 -1 3 0 0 Z " fill="#5B72AA" transform="translate(640,873)"/>
<path d="M0 0 C2.99677813 0.99594862 5.99031733 1.99662824 8.97265625 3.03515625 C16.68818917 5.60049779 23.88084397 6.73423385 32 7 C32.495 8.485 32.495 8.485 33 10 C29.66674246 10.05874776 26.33362062 10.09384467 23 10.125 C22.06542969 10.14175781 21.13085938 10.15851562 20.16796875 10.17578125 C14.40790037 10.21606145 9.5225718 9.65416655 4 8 C4 7.67 4 7.34 4 7 C5.65 7 7.3 7 9 7 C9 6.34 9 5.68 9 5 C8.071875 4.731875 7.14375 4.46375 6.1875 4.1875 C3.23759634 3.08851629 1.94384814 2.37581439 0 0 Z " fill="#425E9E" transform="translate(766,809)"/>
<path d="M0 0 C0.33 0.66 0.66 1.32 1 2 C-1 4 -1 4 -4.375 4.875 C-8.13856823 6.04300393 -9.43138352 7.14598168 -12 10 C-12.66 10 -13.32 10 -14 10 C-14.33 17.92 -14.66 25.84 -15 34 C-15.33 34 -15.66 34 -16 34 C-16 23.77 -16 13.54 -16 3 C-15.67 3.99 -15.34 4.98 -15 6 C-14.41992188 5.566875 -13.83984375 5.13375 -13.2421875 4.6875 C-5.48330404 -0.84358524 -5.48330404 -0.84358524 0 0 Z " fill="#4B67A3" transform="translate(378,864)"/>
<path d="M0 0 C1.9451 2.91765 2.45276317 4.62537285 3 8 C3.59167969 8.15855469 4.18335938 8.31710937 4.79296875 8.48046875 C10.11484464 10.05185462 13.32707812 11.63840527 17 16 C17.33 16.33 17.66 16.66 18 17 C18.04092937 19.33297433 18.04241723 21.66705225 18 24 C17.67 24 17.34 24 17 24 C16.34 21.69 15.68 19.38 15 17 C13.77023437 16.76216797 13.77023437 16.76216797 12.515625 16.51953125 C3.79338843 14.63110443 3.79338843 14.63110443 0.25 11.8125 C-1.47613832 7.92868877 -1.35260996 5.23131947 -1 1 C-0.67 0.67 -0.34 0.34 0 0 Z " fill="#5B73AA" transform="translate(467,869)"/>
<path d="M0 0 C0.98484375 0.00902344 1.9696875 0.01804687 2.984375 0.02734375 C4.10585938 0.04474609 4.10585938 0.04474609 5.25 0.0625 C5.25 1.0525 5.25 2.0425 5.25 3.0625 C4.198125 3.10375 3.14625 3.145 2.0625 3.1875 C-2.93472055 4.33440308 -3.87285398 5.96474658 -6.75 10.0625 C-7.74 9.7325 -8.73 9.4025 -9.75 9.0625 C-10.875 3.3125 -10.875 3.3125 -9.75 1.0625 C-6.52522247 -0.11350832 -3.40196344 -0.04049956 0 0 Z " fill="#6076AC" transform="translate(721.75,681.9375)"/>
<path d="M0 0 C0.66 0.33 1.32 0.66 2 1 C0.7934375 1.86625 0.7934375 1.86625 -0.4375 2.75 C-3.14927345 5.13106937 -3.44662556 5.63679554 -4 9 C-4.06926968 11.75970408 -4.0941736 14.49196042 -4.0625 17.25 C-4.05798828 17.99507812 -4.05347656 18.74015625 -4.04882812 19.5078125 C-4.03709246 21.3385764 -4.0191585 23.16929873 -4 25 C-4.66 25 -5.32 25 -6 25 C-8.06688327 21.5439001 -8.43911229 18.48667771 -8.75 14.5 C-8.84796875 13.3759375 -8.9459375 12.251875 -9.046875 11.09375 C-8.99948321 7.96589202 -8.79089958 6.52199466 -7 4 C-4.77131719 2.24964298 -2.58452476 1.24611015 0 0 Z " fill="#5972AA" transform="translate(595,867)"/>
<path d="M0 0 C0.66 0 1.32 0 2 0 C4 3 4 3 3.64477539 5.3425293 C3.32561157 6.65797729 3.32561157 6.65797729 3 8 C2.85917098 9.83747541 2.75560602 11.67807451 2.68359375 13.51953125 C2.64169922 14.54111328 2.59980469 15.56269531 2.55664062 16.61523438 C2.49766602 18.19788086 2.49766602 18.19788086 2.4375 19.8125 C2.39431641 20.88693359 2.35113281 21.96136719 2.30664062 23.06835938 C2.20089017 25.71212082 2.09879767 28.3559711 2 31 C1.34 31 0.68 31 0 31 C0 20.77 0 10.54 0 0 Z " fill="#647BB0" transform="translate(696,867)"/>
<path d="M0 0 C1.32 0.66 2.64 1.32 4 2 C3.67 3.98 3.34 5.96 3 8 C-5.58 8 -14.16 8 -23 8 C-23 7.34 -23 6.68 -23 6 C-15.74 6 -8.48 6 -1 6 C-0.67 4.02 -0.34 2.04 0 0 Z " fill="#667BAF" transform="translate(439,875)"/>
<path d="M0 0 C3.83447004 3.83447004 5.61124961 6.55749455 6 12 C5.34 11.01 4.68 10.02 4 9 C3.34 9.66 2.68 10.32 2 11 C-1.88768898 5.29805616 -1.88768898 5.29805616 -2.8125 2.84375 C-3.86784486 0.74593777 -3.86784486 0.74593777 -6.3828125 0.390625 C-7.74019531 0.32101562 -7.74019531 0.32101562 -9.125 0.25 C-10.03507812 0.19328125 -10.94515625 0.1365625 -11.8828125 0.078125 C-12.58148438 0.05234375 -13.28015625 0.0265625 -14 0 C-14 -0.33 -14 -0.66 -14 -1 C-4.07079646 -2.60078663 -4.07079646 -2.60078663 0 0 Z " fill="#435F9E" transform="translate(436,867)"/>
<path d="M0 0 C0.33 0.66 0.66 1.32 1 2 C0.67 2.99 0.34 3.98 0 5 C0.33 5.99 0.66 6.98 1 8 C-0.21484375 11.13671875 -0.21484375 11.13671875 -1.9375 14.6875 C-2.50339844 15.86699219 -3.06929687 17.04648437 -3.65234375 18.26171875 C-4.09707031 19.16535156 -4.54179688 20.06898438 -5 21 C-5.66 20.67 -6.32 20.34 -7 20 C-7.99 21.32 -8.98 22.64 -10 24 C-9.3312154 18.85871838 -7.12123277 14.42264561 -5 9.75 C-4.44699219 8.50863281 -4.44699219 8.50863281 -3.8828125 7.2421875 C-1.14332217 1.14332217 -1.14332217 1.14332217 0 0 Z " fill="#4763A2" transform="translate(691,737)"/>
<path d="M0 0 C0.99 0 1.98 0 3 0 C3 2.64 3 5.28 3 8 C4.093125 8.2475 5.18625 8.495 6.3125 8.75 C10.20692879 10.07014535 10.84599509 10.73916795 13 14 C11.03951648 13.7451971 9.08159327 13.47063056 7.125 13.1875 C6.03445313 13.03667969 4.94390625 12.88585937 3.8203125 12.73046875 C1 12 1 12 -1 9 C-1.31254378 6.27716095 -1.13333428 3.75557514 -1 1 C-0.67 0.67 -0.34 0.34 0 0 Z " fill="#516BA6" transform="translate(510,869)"/>
<path d="M0 0 C3.63 0 7.26 0 11 0 C10.01 0.33 9.02 0.66 8 1 C8 1.66 8 2.32 8 3 C15.59 3 23.18 3 31 3 C31 3.33 31 3.66 31 4 C20.77 4 10.54 4 0 4 C0 2.68 0 1.36 0 0 Z " fill="#5C73A9" transform="translate(177,815)"/>
<path d="M0 0 C0.33 0 0.66 0 1 0 C1.06058594 0.81984375 1.12117187 1.6396875 1.18359375 2.484375 C1.26738281 3.56203125 1.35117187 4.6396875 1.4375 5.75 C1.55931641 7.35101562 1.55931641 7.35101562 1.68359375 8.984375 C1.94090773 11.43679962 2.31812218 13.63921291 3 16 C3.66 16 4.32 16 5 16 C5.33 15.34 5.66 14.68 6 14 C8.43929746 15.92576115 10.80090595 17.80090595 13 20 C9.8125 20.875 9.8125 20.875 6 21 C1.0542159 16.49384116 -0.85102143 11.97957148 -1.1875 5.25 C-1 2 -1 2 0 0 Z " fill="#435F9E" transform="translate(586,876)"/>
<path d="M0 0 C0.556875 0.2475 1.11375 0.495 1.6875 0.75 C-0.3483559 5.56202304 -3.59672192 7.70430533 -8.3125 9.75 C-11.13469835 10.13745435 -13.44846442 10.00571746 -16.3125 9.75 C-16.6425 9.09 -16.9725 8.43 -17.3125 7.75 C-11.3725 7.255 -11.3725 7.255 -5.3125 6.75 C-5.3125 6.09 -5.3125 5.43 -5.3125 4.75 C-5.9725 4.42 -6.6325 4.09 -7.3125 3.75 C-2.88173077 -0.31153846 -2.88173077 -0.31153846 0 0 Z " fill="#5069A4" transform="translate(273.3125,890.25)"/>
<path d="M0 0 C1.39211215 4.17633644 -0.0464421 5.78960515 -1.9375 9.6875 C-2.50339844 10.86699219 -3.06929687 12.04648437 -3.65234375 13.26171875 C-4.09707031 14.16535156 -4.54179688 15.06898438 -5 16 C-5.66 15.67 -6.32 15.34 -7 15 C-7.66 15.66 -8.32 16.32 -9 17 C-8.39644592 13.14974121 -7.23227397 10.13898841 -5.4375 6.6875 C-4.98246094 5.80449219 -4.52742187 4.92148437 -4.05859375 4.01171875 C-3.53458984 3.01591797 -3.53458984 3.01591797 -3 2 C-2.34 2 -1.68 2 -1 2 C-0.67 1.34 -0.34 0.68 0 0 Z " fill="#4762A2" transform="translate(708,703)"/>
<path d="M0 0 C2.06145107 0.068991 4.12501401 0.08467727 6.1875 0.0625 C7.27417969 0.05347656 8.36085938 0.04445313 9.48046875 0.03515625 C10.31191406 0.02355469 11.14335938 0.01195312 12 0 C12 0.33 12 0.66 12 1 C10.99839844 1.10957031 9.99679687 1.21914063 8.96484375 1.33203125 C2.18452167 2.12465805 -3.78863244 3.03548366 -10 6 C-10.99 5.67 -11.98 5.34 -13 5 C-11.02 4.34 -9.04 3.68 -7 3 C-7 2.34 -7 1.68 -7 1 C-9.64 1.33 -12.28 1.66 -15 2 C-10.89813382 -2.10186618 -5.24499618 -1.74833206 0 0 Z " fill="#4762A1" transform="translate(780,683)"/>
<path d="M0 0 C5.73242442 -0.34394547 10.09223781 -0.38869294 15 3 C18 7.1 18 7.1 18 10 C17.01 10 16.02 10 15 10 C14.29875 9.030625 13.5975 8.06125 12.875 7.0625 C11.19983999 4.87190613 10.37588661 4.10044701 7.67578125 3.37890625 C5.43987766 3.15075282 3.24693468 3.00979057 1 3 C0.67 2.01 0.34 1.02 0 0 Z " fill="#667DB0" transform="translate(256,866)"/>
<path d="M0 0 C0.33 0 0.66 0 1 0 C1.33 6.27 1.66 12.54 2 19 C3.32 17.02 4.64 15.04 6 13 C6.99 13.33 7.98 13.66 9 14 C6.525 18.455 6.525 18.455 4 23 C3.67 22.34 3.34 21.68 3 21 C2.01 21.33 1.02 21.66 0 22 C0 14.74 0 7.48 0 0 Z " fill="#405C9C" transform="translate(213,680)"/>
<path d="M0 0 C4.5 3 4.5 3 9 6 C10.175625 6.144375 11.35125 6.28875 12.5625 6.4375 C14.2640625 6.7159375 14.2640625 6.7159375 16 7 C16.99 8.485 16.99 8.485 18 10 C13.25440599 10.37964752 9.93011475 10.48228172 5.625 8.25 C3.31435257 6.26944506 1.56062216 4.60103693 0 2 C0 1.34 0 0.68 0 0 Z " fill="#5D75AC" transform="translate(786,888)"/>
<path d="M0 0 C0.99 0 1.98 0 3 0 C3.02722517 2.20826378 3.04649729 4.41662638 3.0625 6.625 C3.07410156 7.85476563 3.08570313 9.08453125 3.09765625 10.3515625 C3.00863924 13.67723791 2.63686087 16.74047588 2 20 C1.34 20 0.68 20 0 20 C-0.66 18.02 -1.32 16.04 -2 14 C-1.67 14 -1.34 14 -1 14 C-0.67 9.38 -0.34 4.76 0 0 Z " fill="#7286B6" transform="translate(274,690)"/>
<path d="M0 0 C1.3274855 3.98245651 -0.00092171 6.44789543 -1.4375 10.1875 C-1.68048828 10.84169922 -1.92347656 11.49589844 -2.17382812 12.16992188 C-2.7743293 13.78303286 -3.38609203 15.3919435 -4 17 C-6.29706332 12.97130432 -5.97435552 10.54699243 -5 6 C-3.9375 3.5625 -3.9375 3.5625 -3 2 C-2.34 2 -1.68 2 -1 2 C-0.67 1.34 -0.34 0.68 0 0 Z " fill="#45619F" transform="translate(196,879)"/>
<path d="M0 0 C-0.33 0.66 -0.66 1.32 -1 2 C-8.41017023 2.11459026 -15.64206267 1.91160286 -23 1 C-23 0.67 -23 0.34 -23 0 C-15.56006938 -1.72005735 -7.45392316 -1.65642737 0 0 Z " fill="#4F69A6" transform="translate(501,623)"/>
<path d="M0 0 C0.66 1.32 1.32 2.64 2 4 C4.67790463 4.83886169 7.1737941 4.81766414 10 5 C10 5.66 10 6.32 10 7 C7.03 7 4.06 7 1 7 C1.33 7.763125 1.66 8.52625 2 9.3125 C3 12 3 12 3 15 C2.34 15 1.68 15 1 15 C0.87625 14.360625 0.7525 13.72125 0.625 13.0625 C0.41875 12.381875 0.2125 11.70125 0 11 C-0.66 10.67 -1.32 10.34 -2 10 C-1.34 6.7 -0.68 3.4 0 0 Z " fill="#637AAE" transform="translate(246,876)"/>
<path d="M0 0 C0.66 0.99 1.32 1.98 2 3 C2.86175198 4.07327292 3.7369604 5.13587416 4.625 6.1875 C5.800625 7.5796875 5.800625 7.5796875 7 9 C6.01 9 5.02 9 4 9 C4.99 9.99 5.98 10.98 7 12 C2.7312118 11.5256902 0.68488344 9.19283436 -2 6 C-2.8125 3.1875 -2.8125 3.1875 -3 1 C-2.01 0.67 -1.02 0.34 0 0 Z " fill="#4662A0" transform="translate(414,886)"/>
<path d="M0 0 C0.66 0.33 1.32 0.66 2 1 C2 1.66 2 2.32 2 3 C1.34 3 0.68 3 0 3 C-0.19335938 3.65226563 -0.38671875 4.30453125 -0.5859375 4.9765625 C-1.98640448 9.6771398 -3.41208726 14.35840891 -5 19 C-5.33 19 -5.66 19 -6 19 C-6.32481924 12.91264682 -6.47425406 8.27571913 -3 3 C-1.3125 1.125 -1.3125 1.125 0 0 Z " fill="#5D75AC" transform="translate(791,868)"/>
<path d="M0 0 C7.26 0 14.52 0 22 0 C19 3 19 3 16.07421875 3.2578125 C14.39779297 3.19207031 14.39779297 3.19207031 12.6875 3.125 C8.2836192 2.97155468 4.3299888 3.1484137 0 4 C0 2.66666667 0 1.33333333 0 0 Z " fill="#7287B6" transform="translate(333,682)"/>
<path d="M0 0 C1.32 0.66 2.64 1.32 4 2 C0.82415714 6.89609107 -2.48157405 8.66796615 -8 10 C-11.5 10.1875 -11.5 10.1875 -14 10 C-14.33 9.34 -14.66 8.68 -15 8 C-13.73542969 7.81824219 -13.73542969 7.81824219 -12.4453125 7.6328125 C-11.34960938 7.46523438 -10.25390625 7.29765625 -9.125 7.125 C-8.03445313 6.96257813 -6.94390625 6.80015625 -5.8203125 6.6328125 C-2.88067286 6.23743487 -2.88067286 6.23743487 -1 4 C-1.66 3.67 -2.32 3.34 -3 3 C-2.01 2.01 -1.02 1.02 0 0 Z " fill="#425F9F" transform="translate(437,890)"/>
<path d="M0 0 C5.53846154 0.61538462 5.53846154 0.61538462 7.875 2.5625 C8.431875 3.2740625 8.431875 3.2740625 9 4 C8.01 4.495 8.01 4.495 7 5 C7.66 5.66 8.32 6.32 9 7 C8.625 9.125 8.625 9.125 8 11 C7.62230469 10.22269531 7.24460937 9.44539062 6.85546875 8.64453125 C4.59633268 5.42466784 3.01463878 4.8634735 -0.6875 3.6875 C-1.68136719 3.36136719 -2.67523437 3.03523437 -3.69921875 2.69921875 C-4.45847656 2.46847656 -5.21773437 2.23773437 -6 2 C-3 1 -3 1 0 1 C0 0.67 0 0.34 0 0 Z " fill="#415E9D" transform="translate(519,880)"/>
<path d="M0 0 C-0.33 0.33 -0.66 0.66 -1 1 C2.3 0.67 5.6 0.34 9 0 C6.51032617 1.65978256 4.27674748 2.85871065 1.5625 4.0625 C0.80066406 4.40410156 0.03882813 4.74570312 -0.74609375 5.09765625 C-2.8219065 5.92870087 -4.81999698 6.51831368 -7 7 C-6.34 5.35 -5.68 3.7 -5 2 C-5.99 1.67 -6.98 1.34 -8 1 C-4.93251126 -0.86240388 -3.40254489 -1.2151946 0 0 Z " fill="#4B65A2" transform="translate(334,684)"/>
<path d="M0 0 C3.03336186 -0.22893297 5.97465051 -0.36475845 9 0 C11.0625 2 11.0625 2 12 4 C11 5 11 5 7.1875 5.25 C3.56033701 5.22395215 1.63994297 4.63994297 -1 2 C-0.67 1.34 -0.34 0.68 0 0 Z " fill="#6279AE" transform="translate(595,895)"/>
<path d="M0 0 C0.66 1.32 1.32 2.64 2 4 C2.66 3.01 3.32 2.02 4 1 C6.33333333 3.33333333 8.66666667 5.66666667 11 8 C10.01 8 9.02 8 8 8 C8.99 9.485 8.99 9.485 10 11 C5.7312118 10.5256902 3.68488344 8.19283436 1 5 C0.1875 2.1875 0.1875 2.1875 0 0 Z " fill="#4662A0" transform="translate(245,887)"/>
<path d="M0 0 C0.33 0.99 0.66 1.98 1 3 C1.66 3 2.32 3 3 3 C2.84660156 3.75539063 2.69320313 4.51078125 2.53515625 5.2890625 C1.8112152 10.3090917 1.63680847 15.31060444 1.4375 20.375 C1.39431641 21.39722656 1.35113281 22.41945313 1.30664062 23.47265625 C1.20112208 25.98165288 1.09900787 28.49073943 1 31 C0.67 31 0.34 31 0 31 C0 20.77 0 10.54 0 0 Z " fill="#7589B8" transform="translate(362,867)"/>
<path d="M0 0 C2.41696872 -0.05411124 4.83271787 -0.09372278 7.25 -0.125 C7.93191406 -0.14175781 8.61382813 -0.15851562 9.31640625 -0.17578125 C13.0608235 -0.21213482 15.82352727 -0.07944349 19 2 C18.67 2.66 18.34 3.32 18 4 C11.73 3.67 5.46 3.34 -1 3 C-0.67 2.01 -0.34 1.02 0 0 Z " fill="#8A9AC2" transform="translate(785,815)"/>
<path d="M0 0 C0 1.32 0 2.64 0 4 C-0.928125 4.45375 -1.85625 4.9075 -2.8125 5.375 C-6.03921389 6.9421633 -6.03921389 6.9421633 -9 9 C-9.3125 6.75 -9.3125 6.75 -9 4 C-5.79364489 0.70457948 -4.69279787 0 0 0 Z " fill="#425D9D" transform="translate(853,865)"/>
<path d="M0 0 C0.66 0.33 1.32 0.66 2 1 C-0.11905463 3.17277714 -2.24472878 5.33826908 -4.375 7.5 C-4.97828125 8.12003906 -5.5815625 8.74007812 -6.203125 9.37890625 C-6.78320312 9.96542969 -7.36328125 10.55195313 -7.9609375 11.15625 C-8.49509277 11.70087891 -9.02924805 12.24550781 -9.57958984 12.80664062 C-11 14 -11 14 -13 14 C-13.66 15.32 -14.32 16.64 -15 18 C-15.66 17.67 -16.32 17.34 -17 17 C-13.63553776 12.68928276 -10.03040929 9.15931397 -5.87109375 5.61328125 C-3.81073837 3.83681618 -1.88376398 1.96225415 0 0 Z " fill="#A1ADDE" transform="translate(623,247)"/>
<path d="M0 0 C-1 3 -1 3 -2.765625 4.1796875 C-5.25718223 5.09442005 -7.10616836 5.20275975 -9.75 5.125 C-10.54921875 5.10695313 -11.3484375 5.08890625 -12.171875 5.0703125 C-12.77515625 5.04710937 -13.3784375 5.02390625 -14 5 C-13.67 4.01 -13.34 3.02 -13 2 C-11.07421875 1.26953125 -11.07421875 1.26953125 -8.6875 0.8125 C-7.90761719 0.65394531 -7.12773438 0.49539063 -6.32421875 0.33203125 C-4 0 -4 0 0 0 Z " fill="#5C74AB" transform="translate(666,893)"/>
<path d="M0 0 C0.9590625 0.06703125 1.918125 0.1340625 2.90625 0.203125 C5.75488368 0.80374053 6.71607526 1.50804053 8.5 3.75 C6.54310341 3.97142255 4.58438048 4.1767568 2.625 4.375 C0.98917969 4.54902344 0.98917969 4.54902344 -0.6796875 4.7265625 C-2.07574219 4.73816406 -2.07574219 4.73816406 -3.5 4.75 C-4.16 4.09 -4.82 3.43 -5.5 2.75 C-6.49 2.09 -7.48 1.43 -8.5 0.75 C-5.28492282 -0.32169239 -3.34874864 -0.27006037 0 0 Z " fill="#6B7FB2" transform="translate(339.5,813.25)"/>
<path d="M0 0 C1.42600325 4.27800976 -0.54362936 6.86765922 -2.4375 10.6875 C-2.77587891 11.38939453 -3.11425781 12.09128906 -3.46289062 12.81445312 C-4.29981348 14.54723706 -5.14877393 16.27419752 -6 18 C-6.99 17.34 -7.98 16.68 -9 16 C-8.25 11.25 -8.25 11.25 -6 9 C-5.67 10.32 -5.34 11.64 -5 13 C-4.80664062 12.39671875 -4.61328125 11.7934375 -4.4140625 11.171875 C-4.02347656 9.97304688 -4.02347656 9.97304688 -3.625 8.75 C-3.36976563 7.96109375 -3.11453125 7.1721875 -2.8515625 6.359375 C-2.04826333 4.13372042 -1.10288338 2.09068328 0 0 Z " fill="#425E9E" transform="translate(520,695)"/>
<path d="M0 0 C0 0.99 0 1.98 0 3 C-3.99560608 5.83022097 -7.42737323 4.76210446 -12 4 C-11.67 3.01 -11.34 2.02 -11 1 C-7.27569643 0.30710631 -3.78916254 -0.11144596 0 0 Z " fill="#637AAF" transform="translate(484,894)"/>
<path d="M0 0 C0.99 0.33 1.98 0.66 3 1 C4.010625 0.979375 5.02125 0.95875 6.0625 0.9375 C9 1 9 1 11 3 C9.948125 2.938125 8.89625 2.87625 7.8125 2.8125 C3.73853741 3.01285882 2.13591505 3.47384621 -1 6 C-2.80796103 8.56610666 -2.80796103 8.56610666 -4 11 C-4.33 10.34 -4.66 9.68 -5 9 C-2.6 2.6 -2.6 2.6 0 0 Z " fill="#3C589A" transform="translate(703,866)"/>
<path d="M0 0 C0 3.72295567 -1.3746498 4.80112485 -3.75390625 7.50390625 C-5.17673476 9.21219252 -6.1349787 10.95540419 -7 13 C-7.66 12.67 -8.32 12.34 -9 12 C-9.99 12.33 -10.98 12.66 -12 13 C-12.66 12.67 -13.32 12.34 -14 12 C-13.40832031 11.55269531 -12.81664062 11.10539063 -12.20703125 10.64453125 C-7.85117433 7.31190989 -3.75643454 3.99878515 0 0 Z " fill="#405D9E" transform="translate(400,795)"/>
<path d="M0 0 C0.70125 0.474375 1.4025 0.94875 2.125 1.4375 C4.93370522 3.17226776 4.93370522 3.17226776 8.1875 3.5 C9.115625 3.665 10.04375 3.83 11 4 C11.99 5.485 11.99 5.485 13 7 C5.80714661 7.48765108 5.80714661 7.48765108 2 5.1875 C0 3 0 3 0 0 Z " fill="#6178AD" transform="translate(510,891)"/>
<path d="M0 0 C1.07765625 0.00902344 2.1553125 0.01804687 3.265625 0.02734375 C4.08546875 0.03894531 4.9053125 0.05054688 5.75 0.0625 C5.75 0.3925 5.75 0.7225 5.75 1.0625 C4.615625 1.18625 3.48125 1.31 2.3125 1.4375 C0.5490625 1.746875 0.5490625 1.746875 -1.25 2.0625 C-1.58 2.7225 -1.91 3.3825 -2.25 4.0625 C-4.89 4.0625 -7.53 4.0625 -10.25 4.0625 C-10.25 3.0725 -10.25 2.0825 -10.25 1.0625 C-6.78777385 -0.00473961 -3.60960734 -0.03923486 0 0 Z " fill="#6E82B3" transform="translate(247.25,681.9375)"/>
<path d="M0 0 C1 4 1 4 0.3125 6.0625 C-1.18464888 8.27257692 -2.79042813 9.52695209 -5 11 C-5 10.34 -5 9.68 -5 9 C-5.66 8.67 -6.32 8.34 -7 8 C-4.69 5.36 -2.38 2.72 0 0 Z " fill="#44609F" transform="translate(838,793)"/>
<path d="M0 0 C1.32 0 2.64 0 4 0 C4 0.66 4 1.32 4 2 C3.34 2.66 2.68 3.32 2 4 C1.175 4.845625 0.35 5.69125 -0.5 6.5625 C-3 9 -3 9 -5 10 C-5 6 -5 6 -2.75 2.75 C-1.8425 1.8425 -0.935 0.935 0 0 Z " fill="#536DA7" transform="translate(225,687)"/>
<path d="M0 0 C1.79379098 0.44994757 3.58498928 0.91024143 5.375 1.375 C6.37273438 1.63023437 7.37046875 1.88546875 8.3984375 2.1484375 C11 3 11 3 13 5 C13.125 8.625 13.125 8.625 13 12 C12.67 12 12.34 12 12 12 C11.34 9.69 10.68 7.38 10 5 C6.7 4.67 3.4 4.34 0 4 C0 2.68 0 1.36 0 0 Z " fill="#506AA5" transform="translate(507,681)"/>
<path d="M0 0 C0.99 0.33 1.98 0.66 3 1 C3.05399736 2.45792884 3.09279177 3.91642712 3.125 5.375 C3.14820313 6.18710937 3.17140625 6.99921875 3.1953125 7.8359375 C3 10 3 10 1 12 C-0.32 12 -1.64 12 -3 12 C-3 11.01 -3 10.02 -3 9 C-2.01 9 -1.02 9 0 9 C0 6.03 0 3.06 0 0 Z " fill="#7084B5" transform="translate(749,856)"/>
<path d="M0 0 C-0.33 0.66 -0.66 1.32 -1 2 C-2.45903258 1.69078116 -3.91720722 1.37751201 -5.375 1.0625 C-6.18710937 0.88847656 -6.99921875 0.71445312 -7.8359375 0.53515625 C-10 0 -10 0 -12 -1 C-12.33 -1.66 -12.66 -2.32 -13 -3 C-6.75372886 -4.04104519 -4.92219708 -3.77368442 0 0 Z " fill="#6C80B3" transform="translate(807,686)"/>
<path d="M0 0 C0.99 0 1.98 0 3 0 C2.5047783 3.66464055 1.9791794 5.70832354 -1 8 C-1.99 8.33 -2.98 8.66 -4 9 C-2.94124926 5.59687262 -1.99097846 2.98646769 0 0 Z " fill="#44609F" transform="translate(845,781)"/>
<path d="M0 0 C1.12588014 0.95729916 2.2506715 1.91587895 3.375 2.875 C4.00148438 3.40867187 4.62796875 3.94234375 5.2734375 4.4921875 C6.55836651 5.61432007 7.79371975 6.79371975 9 8 C7.25 8.6875 7.25 8.6875 5 9 C2.8125 7.9375 2.8125 7.9375 1 6 C0.25 2.8125 0.25 2.8125 0 0 Z " fill="#5A72AA" transform="translate(642,889)"/>
<path d="M0 0 C0.66 0.33 1.32 0.66 2 1 C-4 7 -4 7 -7.0625 7.0625 C-8.5165625 7.0315625 -8.5165625 7.0315625 -10 7 C-6.81404865 4.36021174 -3.69029454 1.89501612 0 0 Z " fill="#5D74AB" transform="translate(391,805)"/>
<path d="M0 0 C2.875 -0.125 2.875 -0.125 6 0 C6.66 0.66 7.32 1.32 8 2 C8.99 2.66 9.98 3.32 11 4 C7.37 4 3.74 4 0 4 C0 2.68 0 1.36 0 0 Z " fill="#4963A0" transform="translate(177,687)"/>
<path d="M0 0 C0.8353125 0.37125 0.8353125 0.37125 1.6875 0.75 C1.3575 1.74 1.0275 2.73 0.6875 3.75 C-2.375 4.9375 -2.375 4.9375 -5.3125 5.75 C-5.9725 5.09 -6.6325 4.43 -7.3125 3.75 C-2.88173077 -0.31153846 -2.88173077 -0.31153846 0 0 Z " fill="#45609F" transform="translate(273.3125,890.25)"/>
<path d="M0 0 C0 1.32 0 2.64 0 4 C-2.97 3.67 -5.94 3.34 -9 3 C-9.33 2.01 -9.66 1.02 -10 0 C-2.25 -1.125 -2.25 -1.125 0 0 Z " fill="#6A80B2" transform="translate(381,866)"/>
<path d="M0 0 C0.99 0 1.98 0 3 0 C2.67 1.65 2.34 3.3 2 5 C1.01 4.67 0.02 4.34 -1 4 C-1.28875 4.969375 -1.5775 5.93875 -1.875 6.9375 C-3 10 -3 10 -5 11 C-3.78310457 6.97488434 -2.50546238 3.40742883 0 0 Z " fill="#405D9D" transform="translate(408,781)"/>
<path d="M0 0 C2.475 0.99 2.475 0.99 5 2 C5.33 5.3 5.66 8.6 6 12 C4.53867783 9.07735566 3.65900754 7.07536854 3 4 C2.34 4 1.68 4 1 4 C0.67 2.68 0.34 1.36 0 0 Z " fill="#5A73AA" transform="translate(380,866)"/>
<path d="M0 0 C1.32 0 2.64 0 4 0 C4.33 2.31 4.66 4.62 5 7 C4.34 6.67 3.68 6.34 3 6 C2.67 6.99 2.34 7.98 2 9 C0.50178941 5.62902617 0 3.79557881 0 0 Z " fill="#3B589A" transform="translate(177,865)"/>
<path d="M0 0 C1 3 1 3 -0.4375 6.1875 C-1.2109375 7.5796875 -1.2109375 7.5796875 -2 9 C-2.66 8.67 -3.32 8.34 -4 8 C-4.66 8.66 -5.32 9.32 -6 10 C-5.49691315 6.27715732 -4.88896023 4.42672659 -2 2 C-1.34 1.34 -0.68 0.68 0 0 Z " fill="#415D9F" transform="translate(489,766)"/>
<path d="M0 0 C0.33 0.99 0.66 1.98 1 3 C-0.2375 2.5359375 -0.2375 2.5359375 -1.5 2.0625 C-5.39126155 0.88122417 -8.96166953 0.41775832 -13 0 C-13 -0.33 -13 -0.66 -13 -1 C-11.58566794 -1.2236337 -10.16832382 -1.42826476 -8.75 -1.625 C-7.56664062 -1.79902344 -7.56664062 -1.79902344 -6.359375 -1.9765625 C-3.61793285 -2.00379537 -2.25229848 -1.54471799 0 0 Z " fill="#667CB0" transform="translate(435,867)"/>
<path d="M0 0 C0 3.96130371 -1.34877125 4.82914401 -4 7.6875 C-4.7425 8.49574219 -5.485 9.30398438 -6.25 10.13671875 C-6.8275 10.75160156 -7.405 11.36648438 -8 12 C-8.66 11.67 -9.32 11.34 -10 11 C-8.52116808 9.35386588 -7.04192523 7.70810092 -5.5625 6.0625 C-4.73878906 5.14597656 -3.91507813 4.22945313 -3.06640625 3.28515625 C-1 1 -1 1 0 0 Z " fill="#A2ADDE" transform="translate(605,265)"/>
<path d="M0 0 C2.64 1.65 5.28 3.3 8 5 C6.02 5.99 6.02 5.99 4 7 C2.35 5.35 0.7 3.7 -1 2 C-0.67 1.34 -0.34 0.68 0 0 Z " fill="#4B66A3" transform="translate(591,890)"/>
<path d="M0 0 C2.875 -0.125 2.875 -0.125 6 0 C6.66 0.66 7.32 1.32 8 2 C7 3 7 3 3.4375 3.0625 C2.303125 3.041875 1.16875 3.02125 0 3 C0 2.01 0 1.02 0 0 Z " fill="#5C75AB" transform="translate(516,864)"/>
<path d="M0 0 C6.625 -0.25 6.625 -0.25 10 2 C10 2.66 10 3.32 10 4 C7.03 3.67 4.06 3.34 1 3 C0.67 2.01 0.34 1.02 0 0 Z " fill="#6B80B2" transform="translate(356,683)"/>
<path d="M0 0 C2.125 0.375 2.125 0.375 4 1 C2.63016497 4.16115776 2.0109362 4.9927092 -1 7 C-0.67 5.68 -0.34 4.36 0 3 C-0.66 2.67 -1.32 2.34 -2 2 C-1.34 1.34 -0.68 0.68 0 0 Z " fill="#405C9C" transform="translate(666,890)"/>
<path d="M0 0 C1.32 0.66 2.64 1.32 4 2 C3.01 2 2.02 2 1 2 C1.33 4.31 1.66 6.62 2 9 C0.68 8.01 -0.64 7.02 -2 6 C-1.34 4.02 -0.68 2.04 0 0 Z " fill="#546DA8" transform="translate(787,881)"/>
<path d="M0 0 C0 0.66 0 1.32 0 2 C-2.64 2.33 -5.28 2.66 -8 3 C-8 2.01 -8 1.02 -8 0 C-4.71023192 -1.09658936 -3.28696233 -0.79953138 0 0 Z " fill="#6D82B3" transform="translate(775,814)"/>
<path d="M0 0 C3 3.75 3 3.75 3 6 C3.99 5.67 4.98 5.34 6 5 C5.67 6.65 5.34 8.3 5 10 C4.34 10 3.68 10 3 10 C0 3.375 0 3.375 0 0 Z " fill="#415E9E" transform="translate(657,803)"/>
<path d="M0 0 C0.66 0 1.32 0 2 0 C1.43454163 3.95820859 0.19097652 6.6659053 -2 10 C-3 8 -3 8 -2.44140625 6.0546875 C-2.15136719 5.33539062 -1.86132812 4.61609375 -1.5625 3.875 C-1.27503906 3.15054688 -0.98757813 2.42609375 -0.69140625 1.6796875 C-0.46324219 1.12539063 -0.23507812 0.57109375 0 0 Z " fill="#4E67A3" transform="translate(407,785)"/>
<path d="M0 0 C2.8125 -0.25 2.8125 -0.25 6 0 C7.875 2 7.875 2 9 4 C4.545 3.01 4.545 3.01 0 2 C0 1.34 0 0.68 0 0 Z " fill="#6179AD" transform="translate(514,879)"/>
<path d="M0 0 C0.33 0.99 0.66 1.98 1 3 C1.66 3 2.32 3 3 3 C2.67 4.98 2.34 6.96 2 9 C1.34 9 0.68 9 0 9 C0 6.03 0 3.06 0 0 Z " fill="#677EB0" transform="translate(362,867)"/>
<path d="M0 0 C0 0.66 0 1.32 0 2 C-3.465 3.485 -3.465 3.485 -7 5 C-6.625 3.0625 -6.625 3.0625 -6 1 C-4 0 -4 0 0 0 Z " fill="#4A64A1" transform="translate(853,865)"/>
<path d="M0 0 C0.33 0.66 0.66 1.32 1 2 C-0.98 4.31 -2.96 6.62 -5 9 C-5.66 8.67 -6.32 8.34 -7 8 C-4.69 5.36 -2.38 2.72 0 0 Z " fill="#526DA6" transform="translate(635,510)"/>
<path d="M0 0 C0.33 0 0.66 0 1 0 C1.08090971 1.62418745 1.13914995 3.24951745 1.1875 4.875 C1.22230469 5.77992188 1.25710938 6.68484375 1.29296875 7.6171875 C1.19628906 8.40351563 1.09960938 9.18984375 1 10 C0.01 10.66 -0.98 11.32 -2 12 C-1.85904936 10.3745692 -1.71207913 8.74965949 -1.5625 7.125 C-1.48128906 6.22007812 -1.40007813 5.31515625 -1.31640625 4.3828125 C-1 2 -1 2 0 0 Z " fill="#4662A1" transform="translate(535,389)"/>
<path d="M0 0 C2.97 0.33 5.94 0.66 9 1 C7 3 7 3 3.375 3.125 C2.26125 3.08375 1.1475 3.0425 0 3 C0 2.01 0 1.02 0 0 Z " fill="#3F5B9C" transform="translate(800,815)"/>
<path d="M0 0 C1.3921875 0.3403125 1.3921875 0.3403125 2.8125 0.6875 C2.4825 1.6775 2.1525 2.6675 1.8125 3.6875 C-0.8275 3.3575 -3.4675 3.0275 -6.1875 2.6875 C-4.14987265 -0.14253799 -3.59070275 -0.35202968 0 0 Z " fill="#6E82B4" transform="translate(369.1875,814.3125)"/>
<path d="M0 0 C0.66 0.99 1.32 1.98 2 3 C1.01 3.99 0.02 4.98 -1 6 C-1.99 5.67 -2.98 5.34 -4 5 C-2.68 3.35 -1.36 1.7 0 0 Z " fill="#6078AC" transform="translate(398,799)"/>
</svg>
