<?xml version="1.0" encoding="UTF-8"?> <svg xmlns="http://www.w3.org/2000/svg" width="55" height="55" viewBox="0 0 55 55" fill="none"><path d="M35.2734 44.4463C35.7553 44.4474 36.2326 44.3528 36.6777 44.1679C37.1227 43.983 37.5265 43.7115 37.8657 43.3692L38.5138 42.7183C38.8813 42.3483 39.1661 41.9045 39.3493 41.4162C39.5324 40.9279 39.6098 40.4063 39.5762 39.8858C40.0958 39.9182 40.6163 39.8395 41.1031 39.655C41.5899 39.4706 42.0319 39.1846 42.3996 38.8161L43.0477 38.1653C43.4152 37.7952 43.6999 37.3514 43.8831 36.8631C44.0662 36.3748 44.1436 35.8532 44.1101 35.3328C44.6296 35.3634 45.1497 35.2839 45.6362 35.0994C46.1228 34.9149 46.5649 34.6295 46.9334 34.2621L47.5806 33.6113L50.1711 31.0098C53.2586 27.8967 54.9911 23.6898 54.9911 19.3053C54.9911 14.9208 53.2586 10.7139 50.1711 7.60084C47.1946 4.60632 43.1801 2.87168 38.9595 2.75632C34.7389 2.64095 30.6357 4.15372 27.5001 6.98117C24.3643 4.15375 20.261 2.64094 16.0404 2.75613C11.8197 2.87132 7.80505 4.60568 4.82815 7.59992C1.74053 10.7131 0.00805664 14.9202 0.00805664 19.3048C0.00805664 23.6895 1.74053 27.8966 4.82815 31.0098L10.6572 36.8645L11.3053 37.5144C11.6442 37.8569 12.0479 38.1285 12.4928 38.3134C12.9377 38.4983 13.4149 38.5928 13.8967 38.5915C13.9811 38.5915 14.0617 38.5723 14.1452 38.5668C14.1058 39.0889 14.1786 39.6133 14.3589 40.1049C14.5391 40.5965 14.8226 41.0438 15.1902 41.4167L15.8382 42.0675C16.1773 42.4097 16.581 42.6811 17.0259 42.866C17.4707 43.0509 17.9479 43.1456 18.4297 43.1446C18.514 43.1446 18.5947 43.1263 18.6772 43.1208C18.6377 43.6426 18.7108 44.1668 18.8914 44.658C19.072 45.1492 19.3559 45.5959 19.724 45.9679L20.3712 46.6188C20.7104 46.9614 21.1143 47.2331 21.5595 47.4182C22.0047 47.6033 22.4823 47.698 22.9644 47.6968C23.0478 47.6968 23.1285 47.6784 23.2119 47.6729C23.1733 48.1937 23.2466 48.7167 23.4268 49.2069C23.607 49.697 23.8901 50.1429 24.2569 50.5146L24.9068 51.1673C25.2456 51.5107 25.6494 51.7834 26.0946 51.9692C26.5398 52.1551 27.0176 52.2505 27.5001 52.2498C27.9817 52.251 28.4588 52.1564 28.9035 51.9715C29.3482 51.7865 29.7517 51.515 30.0906 51.1728L33.9745 47.2723C34.3428 46.8999 34.6269 46.4528 34.8075 45.9611C34.9881 45.4694 35.061 44.9447 35.0213 44.4224C35.1047 44.4279 35.1863 44.4463 35.2707 44.4463H35.2734ZM48.8722 8.8915C51.6188 11.6602 53.1599 15.4021 53.1599 19.3021C53.1599 23.202 51.6188 26.944 48.8722 29.7127L48.5156 30.0711C48.3563 29.4466 48.0339 28.8756 47.5815 28.4165L33.331 14.1055C32.8078 13.6035 32.1109 13.3233 31.3858 13.3233C30.6608 13.3233 29.9638 13.6035 29.4407 14.1055L22.3163 21.2601C21.6202 21.9288 20.6924 22.3023 19.7272 22.3023C18.762 22.3023 17.8341 21.9288 17.1381 21.2601C16.9655 21.0863 16.8687 20.8514 16.8687 20.6065C16.8687 20.3616 16.9655 20.1267 17.1381 19.9529L28.15 8.8915C29.5074 7.52612 31.1213 6.44257 32.899 5.70318C34.6767 4.9638 36.583 4.58315 38.5083 4.58315C40.4336 4.58315 42.3399 4.9638 44.1176 5.70318C45.8953 6.44257 47.5092 7.52612 48.8667 8.8915H48.8722ZM6.12798 8.8915C8.75566 6.24249 12.2992 4.70212 16.0287 4.58769C19.7581 4.47326 23.3894 5.79349 26.1746 8.27642L15.8401 18.6577C15.3259 19.1756 15.0373 19.8758 15.0373 20.6056C15.0373 21.3354 15.3259 22.0356 15.8401 22.5535C16.3498 23.0657 16.9558 23.4721 17.6231 23.7495C18.2904 24.0268 19.0059 24.1695 19.7286 24.1695C20.4512 24.1695 21.1667 24.0268 21.834 23.7495C22.5013 23.4721 23.1073 23.0657 23.6171 22.5535L30.7405 15.3998C30.9135 15.2323 31.1449 15.1386 31.3858 15.1386C31.6267 15.1386 31.8581 15.2323 32.0312 15.3998L46.2817 29.709C46.6261 30.0556 46.8194 30.5243 46.8194 31.013C46.8194 31.5016 46.6261 31.9703 46.2817 32.3169L45.6336 32.9678C45.2862 33.3021 44.8228 33.4889 44.3406 33.4889C43.8585 33.4889 43.395 33.3021 43.0477 32.9678L32.6838 22.5599C32.5122 22.3876 32.2791 22.2904 32.0358 22.2899C31.7926 22.2894 31.5591 22.3855 31.3867 22.5572C31.2144 22.7288 31.1172 22.9619 31.1167 23.2051C31.1162 23.4484 31.2123 23.6819 31.384 23.8543L41.7478 34.2621C42.0921 34.6089 42.2853 35.0778 42.2853 35.5665C42.2853 36.0552 42.0921 36.5241 41.7478 36.8709L41.1007 37.5218C40.7529 37.8555 40.2896 38.0418 39.8077 38.0418C39.3257 38.0418 38.8625 37.8555 38.5147 37.5218L28.15 27.113C28.065 27.0277 27.964 26.9599 27.8529 26.9136C27.7417 26.8672 27.6225 26.8433 27.502 26.843C27.3816 26.8427 27.2623 26.8662 27.1509 26.9121C27.0395 26.9579 26.9383 27.0253 26.8529 27.1103C26.7676 27.1952 26.6998 27.2962 26.6535 27.4074C26.6071 27.5186 26.5831 27.6378 26.5829 27.7582C26.5826 27.8787 26.6061 27.998 26.652 28.1094C26.6978 28.2207 26.7652 28.322 26.8502 28.4073L37.2167 38.8161C37.5604 39.1627 37.7532 39.631 37.7532 40.1191C37.7532 40.6072 37.5604 41.0756 37.2167 41.4222L36.5687 42.0739C36.3993 42.2446 36.1978 42.3801 35.9758 42.4725C35.7538 42.5649 35.5157 42.6125 35.2752 42.6125C35.0348 42.6125 34.7967 42.5649 34.5747 42.4725C34.3527 42.3801 34.1512 42.2446 33.9818 42.0739C33.9818 42.0693 33.9699 42.0675 33.9644 42.0629L33.3356 41.4213C32.9606 41.0607 32.5134 40.7838 32.0236 40.6085C31.5338 40.4333 31.0125 40.3638 30.4939 40.4047C30.5391 39.8773 30.4693 39.3463 30.2891 38.8486C30.109 38.3508 29.823 37.8981 29.4507 37.5218L28.8036 36.87C28.4642 36.5275 28.0603 36.2559 27.6151 36.0708C27.1699 35.8858 26.6924 35.791 26.2103 35.792C26.126 35.792 26.0453 35.8103 25.9619 35.8158C26.0016 35.294 25.9288 34.7697 25.7485 34.2784C25.5683 33.787 25.2847 33.3401 24.9169 32.9678L24.2688 32.316C23.8947 31.9541 23.4477 31.6761 22.9578 31.5003C22.4678 31.3246 21.946 31.2551 21.4272 31.2967C21.471 30.7692 21.3998 30.2384 21.2184 29.7411C21.037 29.2439 20.7498 28.7919 20.3767 28.4165L19.7295 27.7648C19.3896 27.423 18.9855 27.1518 18.5405 26.9668C18.0954 26.7817 17.6182 26.6865 17.1362 26.6865C16.6543 26.6865 16.177 26.7817 15.732 26.9668C15.2869 27.1518 14.8829 27.423 14.543 27.7648L10.6572 31.667C10.2045 32.1279 9.88246 32.7008 9.72407 33.3271L6.12798 29.7154C3.38077 26.9465 1.83922 23.204 1.83922 19.3035C1.83922 15.4029 3.38077 11.6604 6.12798 8.8915ZM13.8977 36.7582C13.6573 36.7586 13.4193 36.7113 13.1974 36.6189C12.9755 36.5265 12.7742 36.391 12.6052 36.2201L11.958 35.5702C11.6137 35.2232 11.4205 34.7541 11.4205 34.2653C11.4205 33.7765 11.6137 33.3074 11.958 32.9604L15.8428 29.0582C16.0122 28.8875 16.2137 28.752 16.4357 28.6596C16.6577 28.5672 16.8958 28.5196 17.1362 28.5196C17.3767 28.5196 17.6148 28.5672 17.8368 28.6596C18.0588 28.752 18.2603 28.8875 18.4297 29.0582L19.0777 29.7099C19.422 30.0568 19.6152 30.5256 19.6152 31.0143C19.6152 31.503 19.422 31.9719 19.0777 32.3188L15.1911 36.221C15.0219 36.3919 14.8204 36.5274 14.5983 36.6196C14.3763 36.7118 14.1381 36.7589 13.8977 36.7582ZM18.4315 41.3113C18.1911 41.3117 17.9531 41.2644 17.7312 41.172C17.5093 41.0796 17.308 40.944 17.139 40.7732L16.4909 40.1233C16.1466 39.7762 15.9534 39.3072 15.9534 38.8184C15.9534 38.3295 16.1466 37.8605 16.4909 37.5135L20.3767 33.6113C20.5463 33.4409 20.7479 33.3057 20.97 33.2135C21.192 33.1212 21.4301 33.0737 21.6705 33.0737C21.911 33.0737 22.149 33.1212 22.3711 33.2135C22.5931 33.3057 22.7947 33.4409 22.9644 33.6113L23.6116 34.263C23.9559 34.61 24.1491 35.079 24.1491 35.5679C24.1491 36.0567 23.9559 36.5257 23.6116 36.8728L19.7258 40.7732C19.5567 40.9444 19.3551 41.0803 19.1329 41.1728C18.9106 41.2654 18.6722 41.3118 18.4315 41.3113ZM21.6728 45.3263L21.0247 44.6745C20.6801 44.328 20.4866 43.8592 20.4866 43.3705C20.4866 42.8819 20.6801 42.413 21.0247 42.0666L24.9105 38.1643C25.2582 37.8303 25.7217 37.6438 26.2039 37.6438C26.6861 37.6438 27.1496 37.8303 27.4973 38.1643L28.1454 38.8161C28.4887 39.1625 28.6813 39.6305 28.6813 40.1182C28.6813 40.6059 28.4887 41.0739 28.1454 41.4203L28.1399 41.4249L24.256 45.3253V45.3299C23.9083 45.6629 23.4453 45.8485 22.9639 45.848C22.4824 45.8475 22.0198 45.6609 21.6728 45.3272V45.3263ZM32.6728 45.9771L28.7926 49.8793C28.6233 50.0497 28.422 50.1849 28.2002 50.2772C27.9785 50.3694 27.7407 50.4169 27.5005 50.4169C27.2604 50.4169 27.0226 50.3694 26.8008 50.2772C26.5791 50.1849 26.3778 50.0497 26.2085 49.8793L25.5586 49.2276C25.2153 48.8812 25.0226 48.4132 25.0226 47.9255C25.0226 47.4377 25.2153 46.9698 25.5586 46.6233L29.4452 42.7165C29.6136 42.5477 29.8136 42.4139 30.0339 42.3226C30.2541 42.2314 30.4902 42.1846 30.7286 42.1848C31.2142 42.184 31.6804 42.3758 32.0247 42.7183L32.6664 43.3747C33.0112 43.7195 33.2058 44.1866 33.2077 44.6743C33.2096 45.1619 33.0186 45.6305 32.6765 45.978L32.6728 45.9771Z" fill="black"></path></svg> 