<?xml version="1.0" encoding="UTF-8"?> <svg xmlns="http://www.w3.org/2000/svg" width="56" height="56" viewBox="0 0 56 56" fill="none"><g clip-path="url(#clip0_222_1500)"><path d="M24.17 46.3484V39.3715C24.17 38.2123 23.6557 37.1262 22.7591 36.3916L11.4121 27.0966C10.6931 26.5076 9.78292 26.3031 8.93299 26.4699L8.47154 17.8276C8.37319 15.9857 6.85121 14.543 5.00684 14.543C3.09365 14.543 1.53711 16.0995 1.53711 18.0127V32.0816C1.53711 33.2732 1.95305 34.4371 2.70835 35.3589L4.07519 37.0269C4.23732 37.2248 4.47286 37.3274 4.71026 37.3273C4.89328 37.3273 5.07729 37.2664 5.22991 37.1414C5.58042 36.8542 5.63173 36.3372 5.34445 35.9867L3.9776 34.3188C3.46211 33.6896 3.17811 32.895 3.17811 32.0816V18.0125C3.17811 17.0041 3.9985 16.1838 5.00684 16.1838C5.97897 16.1838 6.78109 16.9442 6.83283 17.9149L7.33651 27.3483C6.21659 28.5228 6.23256 30.3887 7.38607 31.5424L12.5261 36.6825C12.8467 37.0029 13.3661 37.0029 13.6865 36.6825C14.007 36.362 14.007 35.8425 13.6865 35.5222L8.54648 30.3821C8.01556 29.8512 8.01556 28.9874 8.54648 28.4566C9.04359 27.9597 9.82821 27.9207 10.372 28.366L21.719 37.6609C22.2337 38.0826 22.5289 38.706 22.5289 39.3715V46.0939H10.6391V43.1139C10.6391 42.6846 10.4892 42.2653 10.2171 41.9331L7.5715 38.7046C7.28433 38.3541 6.76719 38.3031 6.41679 38.5901C6.06627 38.8772 6.01496 39.3943 6.30225 39.7448L8.94776 42.9732C8.98025 43.0128 8.99808 43.0627 8.99808 43.1139V46.3485C8.08164 46.7791 7.44537 47.7105 7.44537 48.7883V55.1797C7.44537 55.6328 7.81262 56.0002 8.26587 56.0002C8.71911 56.0002 9.08637 55.6328 9.08637 55.1797V48.7883C9.08637 48.2074 9.55886 47.7349 10.1398 47.7349H23.0285C23.6093 47.7349 24.0818 48.2074 24.0818 48.7883V55.1797C24.0818 55.6328 24.4491 56.0002 24.9023 56.0002C25.3556 56.0002 25.7228 55.6328 25.7228 55.1797V48.7883C25.7227 47.7104 25.0864 46.7789 24.17 46.3484Z" fill="black"></path><path d="M50.9927 14.5425C49.1484 14.5425 47.6264 15.9852 47.528 17.8271L47.0667 26.4694C46.2168 26.3027 45.3066 26.5071 44.5875 27.0961L33.2405 36.3911C32.3439 37.1257 31.8296 38.2118 31.8296 39.371V46.348C30.9131 46.7786 30.2769 47.71 30.2769 48.7878V55.1792C30.2769 55.6324 30.6441 55.9997 31.0974 55.9997C31.5506 55.9997 31.9179 55.6324 31.9179 55.1792V48.7878C31.9179 48.2069 32.3904 47.7344 32.9713 47.7344H45.8599C46.4408 47.7344 46.9133 48.2069 46.9133 48.7878V49.9318C46.9133 50.385 47.2806 50.7523 47.7338 50.7523C48.1871 50.7523 48.5543 50.385 48.5543 49.9318V48.7878C48.5543 47.71 47.9179 46.7786 47.0016 46.348V43.14C47.0016 43.0717 47.0254 43.005 47.0687 42.9521L53.2913 35.3583C54.0466 34.4367 54.4626 33.2727 54.4626 32.0812V18.0121C54.4625 16.0989 52.906 14.5425 50.9927 14.5425ZM52.8215 32.0814C52.8215 32.8949 52.5375 33.6893 52.022 34.3185L45.7992 41.9123C45.5163 42.2578 45.3604 42.6938 45.3604 43.1402V46.0937H33.4706V39.3712C33.4706 38.7058 33.7657 38.0823 34.2805 37.6607L45.6274 28.3657C46.1713 27.9202 46.9561 27.9593 47.453 28.4563C47.9839 28.9872 47.9839 29.851 47.453 30.3818L42.3129 35.5219C41.9925 35.8423 41.9925 36.3619 42.3129 36.6822C42.6335 37.0026 43.1529 37.0026 43.4733 36.6822L48.6134 31.5421C49.7669 30.3885 49.7829 28.5226 48.6631 27.3482L49.1666 17.9147C49.2185 16.944 50.0206 16.1836 50.9926 16.1836C52.001 16.1836 52.8213 17.0039 52.8213 18.0122V32.0814H52.8215Z" fill="black"></path><path d="M47.7336 52.6084C47.2803 52.6084 46.9131 52.9758 46.9131 53.4289V55.1796C46.9131 55.6328 47.2803 56.0001 47.7336 56.0001C48.1868 56.0001 48.5541 55.6328 48.5541 55.1796V53.4289C48.5541 52.9758 48.1868 52.6084 47.7336 52.6084Z" fill="black"></path><path d="M37.9952 25.4907V19.742C38.2653 19.7926 38.5115 19.8802 38.7297 20.0039C39.2751 20.3131 39.8959 20.4766 40.5252 20.4766C41.5287 20.4766 42.4982 20.0568 43.1853 19.325C43.8819 18.5828 44.2302 17.6127 44.1658 16.5931C44.0505 14.7681 42.5873 13.3042 40.7621 13.1879C40.0609 13.1429 39.3703 13.2979 38.7616 13.6351C38.5222 13.7676 38.2654 13.8608 37.9952 13.9135V9.28351C37.9952 7.73572 36.736 6.47652 35.1883 6.47652H29.1714C29.2037 6.0875 29.3053 5.74015 29.4732 5.4439C29.7823 4.89843 29.9458 4.27747 29.9458 3.64832C29.9458 2.64501 29.5261 1.67551 28.7944 0.988474C28.0525 0.291705 27.0821 -0.0569527 26.0629 0.00759328C24.2378 0.122573 22.7737 1.58569 22.6572 3.41114C22.6126 4.11119 22.7673 4.80314 23.1046 5.41228C23.285 5.73797 23.3925 6.09603 23.424 6.47652H17.849C16.3012 6.47652 15.042 7.73572 15.042 9.28351V12.0563C15.042 12.5094 15.4092 12.8768 15.8625 12.8768C16.3157 12.8768 16.683 12.5094 16.683 12.0563V9.28351C16.683 8.64068 17.206 8.11752 17.849 8.11752H23.657C24.0548 8.11752 24.4374 7.94971 24.7067 7.65706C24.9761 7.36442 25.1116 6.96926 25.0787 6.57302L25.0594 6.34142C25.0086 5.72768 24.8338 5.14753 24.5401 4.61716C24.355 4.28295 24.2702 3.9019 24.2948 3.5155C24.3578 2.52893 25.1798 1.70745 26.1661 1.64531C26.7273 1.61008 27.263 1.80142 27.6711 2.18465C28.0797 2.56832 28.3048 3.08808 28.3048 3.64821C28.3048 3.99435 28.2152 4.33535 28.0456 4.63456C27.7594 5.13944 27.5879 5.7139 27.5359 6.34163L27.5167 6.57302C27.4838 6.96937 27.6194 7.36442 27.8888 7.65706C28.1582 7.94971 28.5407 8.11742 28.9384 8.11742H35.1883C35.8312 8.11742 36.3542 8.64046 36.3542 9.2834V14.3863C36.3542 14.7266 36.4978 15.054 36.7484 15.2845C36.9988 15.5149 37.3371 15.631 37.6761 15.603L37.8322 15.5901C38.4457 15.5392 39.0258 15.3644 39.5566 15.0707C39.8905 14.8858 40.2705 14.801 40.6579 14.8255C41.6444 14.8884 42.4657 15.7101 42.5281 16.6965C42.5636 17.2589 42.3722 17.7935 41.9889 18.2017C41.6052 18.6104 41.0854 18.8354 40.5252 18.8354C40.1792 18.8354 39.8382 18.7458 39.5388 18.5762C39.034 18.2901 38.4595 18.1185 37.8317 18.0666L37.676 18.0537C37.3381 18.0259 36.9987 18.1416 36.7483 18.3721C36.4978 18.6026 36.3542 18.9301 36.3542 19.2704V25.4906C36.3542 26.1335 35.8312 26.6566 35.1883 26.6566H29.1421L29.1713 26.3061C29.2037 25.9165 29.3052 25.5686 29.4732 25.2723C29.7823 24.727 29.9458 24.106 29.9458 23.4767C29.9458 22.4734 29.5261 21.5039 28.7944 20.8169C28.0525 20.1201 27.0821 19.7717 26.0629 19.836C24.2378 19.951 22.7737 21.4141 22.6572 23.2396C22.6126 23.9396 22.7673 24.6316 23.1046 25.2407C23.285 25.5665 23.3925 25.9247 23.424 26.3054L23.4532 26.6564H17.849C17.206 26.6564 16.683 26.1334 16.683 25.4905V15.5527C16.683 15.0995 16.3157 14.7322 15.8625 14.7322C15.4092 14.7322 15.042 15.0995 15.042 15.5527V25.4905C15.042 27.0383 16.3012 28.2974 17.849 28.2974H23.9435C24.2752 28.2974 24.5944 28.1574 24.819 27.9133C25.0437 27.6693 25.1566 27.3397 25.1291 27.0094L25.0594 26.1698C25.0086 25.5561 24.8338 24.976 24.5401 24.4456C24.355 24.1114 24.2702 23.7303 24.2948 23.3439C24.3578 22.3574 25.1798 21.5359 26.1661 21.4737C26.7271 21.4373 27.2628 21.6298 27.6711 22.0131C28.0797 22.3967 28.3048 22.9165 28.3048 23.4766C28.3048 23.8228 28.2152 24.1638 28.0455 24.463C27.7596 24.9676 27.5881 25.542 27.5359 26.1702L27.4662 27.0094C27.4389 27.3399 27.552 27.6694 27.7766 27.9135C28.0013 28.1574 28.3203 28.2974 28.6519 28.2974H35.1883C36.736 28.2977 37.9952 27.0385 37.9952 25.4907Z" fill="black"></path></g><defs><clipPath id="clip0_222_1500"><rect width="56" height="56" fill="white"></rect></clipPath></defs></svg> 