<?xml version="1.0" encoding="UTF-8"?> <svg xmlns="http://www.w3.org/2000/svg" width="70" height="65" viewBox="0 0 70 65" fill="none"><path d="M12.5999 26.0938C10.7988 26.0938 9.33325 27.4546 9.33325 29.1271C9.33325 30.7995 10.7988 32.1604 12.5999 32.1604C14.401 32.1604 15.8666 30.7995 15.8666 29.1271C15.8666 27.4546 14.401 26.0938 12.5999 26.0938ZM12.5999 30.4271C11.8278 30.4271 11.1999 29.844 11.1999 29.1271C11.1999 28.4101 11.8278 27.8271 12.5999 27.8271C13.372 27.8271 13.9999 28.4101 13.9999 29.1271C13.9999 29.844 13.372 30.4271 12.5999 30.4271Z" fill="black"></path><path d="M56 21.7606C56.5154 21.7606 56.9333 21.3726 56.9333 20.8939V19.1606C56.9333 18.682 56.5154 18.2939 56 18.2939C55.4846 18.2939 55.0667 18.682 55.0667 19.1606V20.8939C55.0667 21.3726 55.4846 21.7606 56 21.7606Z" fill="black"></path><path d="M56 23.4941C55.4846 23.4941 55.0667 23.8822 55.0667 24.3608V26.0941C55.0667 26.5728 55.4846 26.9608 56 26.9608C56.5154 26.9608 56.9333 26.5728 56.9333 26.0941V24.3608C56.9333 23.8822 56.5154 23.4941 56 23.4941Z" fill="black"></path><path d="M52.2666 23.4941H54.1333C54.6487 23.4941 55.0666 23.106 55.0666 22.6274C55.0666 22.1488 54.6487 21.7607 54.1333 21.7607H52.2666C51.7512 21.7607 51.3333 22.1488 51.3333 22.6274C51.3333 23.106 51.7512 23.4941 52.2666 23.4941Z" fill="black"></path><path d="M59.7333 21.7607H57.8667C57.3512 21.7607 56.9333 22.1488 56.9333 22.6274C56.9333 23.106 57.3512 23.4941 57.8667 23.4941H59.7333C60.2488 23.4941 60.6667 23.106 60.6667 22.6274C60.6667 22.1488 60.2488 21.7607 59.7333 21.7607Z" fill="black"></path><path d="M57.943 14.5387C58.4942 14.5387 58.941 14.1238 58.941 13.6122C58.941 13.1007 58.4942 12.6855 57.943 12.6855C57.3919 12.6855 56.9453 13.1005 56.9453 13.6122C56.9453 14.124 57.3921 14.5387 57.943 14.5387Z" fill="black"></path><path d="M35.9329 11.3604C29.3167 11.3604 16.7996 29.8552 16.7996 39.631C16.7996 49.37 25.3827 57.2937 35.9329 57.2937C46.4831 57.2937 55.0662 49.3702 55.0662 39.631C55.0662 29.8552 42.5491 11.3604 35.9329 11.3604ZM35.9329 55.5604C26.4117 55.5604 18.6662 48.4147 18.6662 39.631C18.6662 30.2305 30.7732 13.0937 35.9329 13.0937C41.0926 13.0937 53.1996 30.2307 53.1996 39.631C53.1996 48.4145 45.4541 55.5604 35.9329 55.5604Z" fill="black"></path><path d="M31.0833 29.1277L27.042 35.6277C26.8756 35.8959 26.8756 36.2261 27.042 36.4943L31.0833 42.9943C31.2502 43.2626 31.5582 43.4277 31.8918 43.4277H39.9747C40.3084 43.4277 40.6164 43.2626 40.7832 42.9943L44.8246 36.4943C44.9909 36.2261 44.9909 35.8959 44.8246 35.6277L40.7832 29.1277C40.6164 28.8594 40.3084 28.6943 39.9747 28.6943H31.8918C31.5582 28.6943 31.2502 28.8592 31.0833 29.1277ZM39.436 30.4277L42.9383 36.061L39.436 41.6943H32.4306L28.9283 36.061L32.4306 30.4277H39.436Z" fill="black"></path><path d="M35.7281 15.6943C32.8143 15.6943 27.8727 23.056 26.9121 24.532C23.2453 30.1631 21.0559 35.6201 21.0559 39.129C21.0559 41.745 21.7645 44.3273 23.1053 46.5973C23.2569 46.8538 23.5374 47.0217 23.8508 47.0445C24.1688 47.0677 24.4696 46.9416 24.6625 46.7102C25.0235 46.2764 25.5595 46.0277 26.1332 46.0277C27.1627 46.0277 27.9999 46.8051 27.9999 47.761C27.9999 48.419 27.5983 49.0118 26.9518 49.3087C26.6683 49.4382 26.4751 49.6922 26.4377 49.9831C26.4004 50.2741 26.5243 50.5634 26.7667 50.7508C29.3644 52.7638 32.4633 53.8277 35.7281 53.8277C43.8183 53.8277 50.3999 47.2336 50.3999 39.129C50.3999 34.1673 46.1644 27.263 44.3433 24.5248C43.7422 23.6213 38.3933 15.6943 35.7281 15.6943ZM48.5332 39.129C48.5332 46.2781 42.7888 52.0943 35.7281 52.0943C33.2863 52.0943 30.9476 51.4025 28.8989 50.083C29.5133 49.4588 29.8663 48.6396 29.8663 47.761C29.8663 45.8496 28.1915 44.2943 26.133 44.2943C25.4475 44.2943 24.7909 44.4679 24.2204 44.789C23.3687 43.0232 22.9226 41.087 22.9226 39.129C22.9226 31.3921 33.6449 17.5982 35.7081 17.429C37.6303 17.871 48.5332 31.6536 48.5332 39.129Z" fill="black"></path><path d="M31.3158 36.4027C31.4497 36.4649 31.5925 36.4942 31.7323 36.4942C32.075 36.4942 32.4045 36.3189 32.5681 36.0151L34.4347 32.5484C34.6653 32.1201 34.4786 31.5997 34.0173 31.3856C33.5548 31.1715 32.9951 31.3453 32.765 31.7732L30.8983 35.2399C30.6678 35.668 30.8545 36.1884 31.3158 36.4027Z" fill="black"></path><path d="M45.6085 11.7403C45.7907 11.9095 46.0297 11.9942 46.2684 11.9942C46.5071 11.9942 46.746 11.9095 46.9282 11.7403L47.6439 11.0755L48.3595 11.7403C48.5417 11.9095 48.7807 11.9942 49.0194 11.9942C49.2581 11.9942 49.497 11.9095 49.6792 11.7403C50.0437 11.4021 50.0437 10.8532 49.6792 10.5148L48.9634 9.85008L49.6792 9.18535C50.0437 8.84691 50.0437 8.29788 49.6792 7.95988C49.3148 7.62145 48.724 7.62145 48.3595 7.95988L47.6439 8.62461L46.9282 7.95988C46.5638 7.62145 45.973 7.62145 45.6085 7.95988C45.244 8.2981 45.244 8.84691 45.6085 9.18535L46.3244 9.85008L45.6085 10.5148C45.2438 10.8532 45.2438 11.4021 45.6085 11.7403Z" fill="black"></path></svg> 